<svg version="1.1"
    xmlns="http://www.w3.org/2000/svg"
    xmlns:xlink="http://www.w3.org/1999/xlink" x="0px" y="0px" viewBox="0 0 1000 1000" xml:space="preserve">
    <g transform="translate(0.000000,512.000000) scale(0.100000,-0.100000)">
        <path d="M4195.6,5005.3c-593.5-28.7-1035.7-137.8-1543-382.9C1259,3950.4,275,2365.4,116.1,535.2C18.5-600,368.8-1919,1035-2924c706.4-1062.5,1700-1686.5,2892.6-1812.9c99.5-11.5,522.6-24.9,938-32.5c706.4-11.5,775.3-9.6,1062.5,28.7c488.2,67,758.1,130.2,1158.2,273.8c1600.4,578.1,2626.5,2100,2796.9,4150.3c107.2,1296-304.4,2726.1-1077.8,3756c-670,888.3-1571.7,1416.6-2647.6,1546.8C5939.6,5012.9,4613,5026.3,4195.6,5005.3z M6066,4632c786.8-111,1468.3-449.9,2061.8-1024.2C9728.2,2062.9,10000-653.6,8749.9-2587.1c-591.5-917-1426.2-1525.8-2377.6-1738.3c-754.3-170.4-1521.9-80.4-2232.2,258.4c-842.3,402-1520,1129.5-1956.5,2094.3c-758.1,1671.2-551.3,3671.7,520.7,5094.1c641.3,850,1579.3,1409,2544.2,1518.1C5478.3,4666.4,5855.4,4662.6,6066,4632z M4096.1,4574.5c-5.7-5.7-80.4-45.9-168.5-88.1c-155.1-74.7-160.8-74.7-304.4-63.2c-237.4,21.1-239.3,34.5-19.1,82.3c109.1,23,264.2,47.9,342.7,57.4s147.4,17.2,151.2,19.1C4101.8,4582.2,4101.8,4580.3,4096.1,4574.5z M3318.9,4297c103.4-9.6,191.4-19.1,197.2-19.1c7.7,0-53.6-44-132.1-97.6l-147.4-97.6l-281.4,30.6c-155.1,17.2-289.1,30.6-300.6,32.5c-9.6,0,67,44,172.3,93.8c137.8,68.9,206.7,91.9,248.9,86.2C3108.3,4319.9,3217.4,4308.4,3318.9,4297z M2851.8,3969.6c107.2-13.4,193.4-28.7,191.4-34.5c-3.8-5.8-55.5-57.4-114.9-114.9l-109.1-101.5l-350.3,40.2c-191.4,23-350.3,44-352.2,45.9c-3.8,3.8,61.3,51.7,141.7,107.2l147.4,101.5l124.4-11.5C2599.1,3996.4,2742.6,3981.1,2851.8,3969.6z M2373.2,3615.4c158.9-19.1,291-38.3,291-44c-1.9-5.8-45.9-61.3-101.5-122.5l-99.6-111l-335,40.2c-480.5,57.4-448,38.3-314,174.2c107.2,111,116.8,114.9,189.5,105.3C2045.8,3653.7,2212.4,3632.7,2373.2,3615.4z M1984.6,3242.1c189.5-23,348.4-44,352.2-47.9c3.8-3.8-24.9-55.5-65.1-112.9c-55.5-82.3-82.3-105.3-122.5-105.3c-67,0-750.4,90-760,101.5c-5.7,3.8,32.5,55.5,82.3,114.9c67,80.4,99.5,105.3,128.3,99.6C1622.7,3288.1,1795,3265.1,1984.6,3242.1z M1724.2,2870.8c193.3-26.8,356.1-49.8,359.9-55.5c3.8-3.8-28.7-72.8-72.7-153.2c-67-118.7-88.1-143.6-120.6-135.9c-23,5.7-212.5,32.5-423.1,59.3c-210.6,28.7-386.7,53.6-388.6,55.5c-3.8,3.8,36.4,70.8,88.1,149.3c86.1,126.3,101.5,139.7,151.2,134C1347.1,2920.5,1530.8,2895.6,1724.2,2870.8z M1483,2428.5c208.7-28.7,375.2-57.4,373.3-65.1c-111-258.4-139.7-306.3-180-306.3c-57.4,0-836.6,112.9-846.1,122.5c-3.8,5.8,28.7,78.5,74.7,164.6c80.4,149.3,86.1,155.1,141.7,145.5C1077.1,2484.1,1274.3,2457.3,1483,2428.5z M1641.9,1904c34.5,0-59.3-275.7-93.8-283.3c-28.7-5.8-794.5,103.4-861.5,122.5c-38.3,11.5-34.5,34.5,34.5,191.4l44,97.6l426.9-63.2C1427.5,1932.7,1630.4,1904,1641.9,1904z M1081,1528.8c245-38.3,446-68.9,448-70.8c1.9-1.9-11.5-68.9-30.6-147.4c-26.8-122.5-38.3-143.6-68.9-139.7c-130.2,17.2-899.8,141.7-905.5,147.4c-13.4,15.3,74.7,279.5,93.8,279.5C629.2,1597.7,837.9,1567.1,1081,1528.8z M1435.1,1013.8c5.8-5.7-32.5-283.3-42.1-291c-3.8-3.8-222.1,28.7-486.2,72.7c-459.4,76.6-480.5,82.3-472.9,120.6c3.8,23,17.2,88.1,28.7,147.4l21.1,105.3l472.8-76.6C1216.9,1052.1,1431.3,1015.7,1435.1,1013.8z M1377.7,564c1.9,0,3.8-68.9,3.8-153.2c0-132.1-3.8-153.1-32.5-153.1c-19.1,0-243.1,36.4-497.7,80.4l-465.2,80.4v68.9c0,40.2,5.7,109.1,11.5,157l11.5,86.2l482.4-82.3C1155.6,602.2,1373.9,564,1377.7,564z M1132.7,135.1L1372,93l5.7-128.3c3.8-84.2-1.9-128.3-15.3-128.3c-11.5,0-233.6,38.3-493.9,86.1C610-29.5,389.9,8.8,382.2,8.8c-7.7,0-15.3,59.3-15.3,132.1v130.2l264.2-45.9C774.7,198.3,1000.6,158.1,1132.7,135.1z M891.5-232.4c264.2-49.8,486.2-93.8,493.9-101.5c7.7-5.7,19.1-63.2,24.9-128.3l13.4-116.8l-513.1,95.7c-283.3,53.6-516.9,97.6-516.9,97.6c-1.9,1.9-7.7,55.5-15.3,122.5c-9.6,86.1-7.7,118.7,9.6,118.7C401.4-144.4,627.3-184.6,891.5-232.4z M948.9-642.1c271.8-51.7,495.8-97.6,497.7-99.6c11.5-17.2,67-310.1,61.3-317.8c-7.7-7.7-1024.2,185.7-1047.2,199.1c-7.7,3.8-19.1,47.9-24.9,97.6c-7.7,51.7-19.1,120.6-24.9,155c-7.7,44-1.9,61.3,15.3,61.3C441.6-546.4,675.1-588.5,948.9-642.1z M1033.1-1128.3c287.2-55.5,524.5-105.3,526.5-109.1c15.3-23,88.1-275.7,80.4-281.4c-5.7-7.7-1066.3,204.8-1077.8,216.3c-15.3,13.4-74.7,277.6-65.1,277.6C504.8-1025,746-1070.9,1033.1-1128.3z M1707-1706.5c17.2-19.1,116.8-260.3,109.1-268c-7.7-9.6-1095,224-1106.5,237.4c-15.3,15.3-93.8,227.8-93.8,250.8C615.8-1467.2,1684-1683.5,1707-1706.5z M1370-2039.6c292.9-61.3,534.1-116.8,537.9-118.7c30.6-44,162.7-308.2,158.9-314c-7.7-5.7-1024.2,206.8-1110.3,233.6c-24.9,7.7-168.5,266.1-168.5,304.4C788.1-1917.1,841.7-1926.6,1370-2039.6z M2283.2-2795.8c49.8-72.7,90-134,88.1-137.8c-3.8-1.9-268,53.6-587.7,126.4l-583.9,130.2l-80.4,122.5c-45.9,67-82.3,128.3-82.3,134s260.4-45.9,576.2-116.8l576.2-126.3L2283.2-2795.8z M1971.1-3004.4c555.2-126.3,560.9-126.3,620.3-193.3c97.6-112.9,134-162.7,116.8-162.7c-9.6,0-279.5,59.3-599.2,134l-583.9,132.1l-90,101.5c-97.6,109.1-111,137.8-57.4,122.5C1394.9-2876.2,1662.9-2935.5,1971.1-3004.4z M2344.4-3437.1L2936-3573l149.3-128.3c82.3-70.8,147.4-130.2,145.5-132.1c0,0-285.2,65.1-631.7,145.5l-627.9,147.4l-137.8,128.3c-74.7,70.8-122.5,124.4-107.2,118.7C1741.4-3297.3,2020.9-3362.4,2344.4-3437.1z M2980-3923.3l555.2-122.5l210.6-126.4c114.9-68.9,202.9-126.3,195.3-126.3c-7.7,0-281.4,55.5-608.8,124.4L2735-4049.7l-183.8,107.2c-101.5,57.4-204.8,122.5-231.6,141.7l-47.9,36.4l76.6-19.1C2390.4-3793.1,2675.6-3856.3,2980-3923.3z"/>
        <path d="M5478.3,3121.5v-178l-93.8-13.4c-128.3-17.2-336.9-90-503.5-178c-191.4-99.5-442.2-348.4-537.9-536c-229.7-444.1-210.6-1068.2,45.9-1504.7c189.5-319.7,530.3-580.1,961-731.3l147.4-53.6v-733.2c0-403.9-7.7-735.1-15.3-735.1c-7.7,0-53.6,24.9-101.5,53.6c-176.1,113-319.7,327.4-392.5,593.5c-24.9,90-42.1,118.7-67,118.7c-65.1,0-848.1-97.6-857.6-107.2c-19.1-19.1,80.4-405.8,141.7-549.4c88.1-206.8,172.3-340.8,302.5-484.3c206.8-225.9,511.1-392.4,842.3-459.5l166.6-36.4v-319.7v-321.6h248.9h248.9v331.2v333.1l162.7,40.2c336.9,82.3,601.1,227.8,823.2,453.7c306.3,310.1,425,668.1,407.8,1219.5c-7.6,235.5-17.2,296.7-63.2,434.6c-158.9,467.1-543.7,786.8-1165.8,968.7c-95.7,26.8-176.1,51.7-179.9,57.4c-17.2,17.2-28.7,1368.8-9.6,1368.8c38.3,0,189.5-111,237.4-174.2c67-88.1,122.5-201,151.3-300.5c19.1-72.8,26.8-82.3,63.2-74.7c23,5.7,216.3,34.5,430.7,63.2c344.6,45.9,386.7,55.5,386.7,86.2c0,70.8-111,379-180,503.5c-189.5,338.8-564.7,597.3-962.9,666.2l-139.7,23v178v178h-248.9h-248.9V3121.5z M5478.3,1559.4V946.8l-109.1,55.5c-135.9,68.9-220.1,153.2-277.6,279.5c-34.5,78.5-42.1,128.3-42.1,277.6c0,222.1,44,342.7,174.2,461.4c65.1,59.3,210.6,147.4,250.8,151.2C5476.3,2172,5478.3,1896.3,5478.3,1559.4z M6200-299.4c149.3-70.8,296.7-227.8,340.8-361.8c32.5-99.6,42.1-314,19.1-425c-49.8-229.7-271.8-448-511.1-505.4l-53.6-11.5v693V-219l44-11.5C6062.2-238.2,6134.9-268.8,6200-299.4z"/>
    </g>
</svg>