<svg viewBox="0 0 543 339" fill="none" xmlns="http://www.w3.org/2000/svg">
<g clip-path="url(#clip0_159_175)">
<path d="M141.913 206.601C198.965 206.601 245.216 160.352 245.216 103.3C245.216 46.2492 198.965 0 141.913 0C84.86 0 38.6096 46.2492 38.6096 103.3C38.6096 160.352 84.86 206.601 141.913 206.601Z" fill="#F2F2F2"/>
<path d="M0 24.8029C0 62.3878 23.5793 92.8009 52.7188 92.8009L0 24.8029Z" fill="#2F2E41"/>
<path d="M52.7188 92.8009C52.7188 54.7938 79.0319 24.0389 111.55 24.0389L52.7188 92.8009Z" fill="#EF2A4F"/>
<path d="M19.1011 28.2101C19.1011 63.9117 34.1372 92.8009 52.7189 92.8009L19.1011 28.2101Z" fill="#EF2A4F"/>
<path d="M52.7188 92.8009C52.7188 44.2363 83.1327 4.93839 120.718 4.93839L52.7188 92.8009Z" fill="#2F2E41"/>
<path d="M41.6282 93.2803C41.6282 93.2803 49.1046 93.0501 51.3578 91.4456C53.611 89.8412 62.8584 87.9254 63.4173 90.4986C63.9763 93.0717 74.653 103.296 66.2121 103.364C57.7713 103.432 46.5994 102.05 44.3506 100.68C42.1017 99.31 41.6282 93.2803 41.6282 93.2803Z" fill="#A8A8A8"/>
<path opacity="0.2" d="M66.3628 102.469C57.922 102.537 46.7501 101.154 44.5012 99.784C42.7886 98.7409 42.1061 94.9976 41.8778 93.2706C41.7196 93.2774 41.6282 93.2803 41.6282 93.2803C41.6282 93.2803 42.1017 99.3099 44.3506 100.68C46.5994 102.05 57.7713 103.432 66.2121 103.364C68.6487 103.345 69.4903 102.478 69.4441 101.194C69.1056 101.97 68.1763 102.454 66.3628 102.469Z" fill="black"/>
<path d="M96.3236 218.211C146.412 218.211 187.017 212.687 187.017 205.873C187.017 199.059 146.412 193.536 96.3236 193.536C46.2351 193.536 5.63037 199.059 5.63037 205.873C5.63037 212.687 46.2351 218.211 96.3236 218.211Z" fill="#3F3D56"/>
<path opacity="0.1" d="M96.3235 216.232C138.376 216.232 172.467 211.594 172.467 205.873C172.467 200.153 138.376 195.515 96.3235 195.515C54.2706 195.515 20.1799 200.153 20.1799 205.873C20.1799 211.594 54.2706 216.232 96.3235 216.232Z" fill="black"/>
<path d="M405.748 339C481.55 339 543 330.64 543 320.328C543 310.016 481.55 301.657 405.748 301.657C329.945 301.657 268.495 310.016 268.495 320.328C268.495 330.64 329.945 339 405.748 339Z" fill="#3F3D56"/>
<path d="M150.642 324.27C196.177 324.27 233.091 319.248 233.091 313.054C233.091 306.859 196.177 301.837 150.642 301.837C105.107 301.837 68.1941 306.859 68.1941 313.054C68.1941 319.248 105.107 324.27 150.642 324.27Z" fill="#3F3D56"/>
<path d="M224.361 303.597C268.01 314.751 351.914 289.047 361.128 259.948" stroke="#2F2E41" stroke-width="2" stroke-miterlimit="10"/>
<path d="M150.157 125.609C150.157 125.609 213.206 108.15 217.086 164.408C220.966 220.665 165.192 236.67 208.841 247.824" stroke="#2F2E41" stroke-width="2" stroke-miterlimit="10"/>
<path d="M89.2439 260.571C89.2439 260.571 108.194 255.323 109.36 272.232C110.526 289.14 93.7627 293.951 106.882 297.303" stroke="#2F2E41" stroke-width="2" stroke-miterlimit="10"/>
<path d="M377.665 273.159L373.844 297.551C373.844 297.551 355.035 307.543 368.26 307.837C381.485 308.131 443.789 307.837 443.789 307.837C443.789 307.837 455.839 307.837 436.736 297.257L432.916 271.69L377.665 273.159Z" fill="#2F2E41"/>
<path opacity="0.1" d="M365.6 307.572C368.603 304.9 373.844 302.116 373.844 302.116L377.665 277.723L432.915 277.775L436.736 301.822C441.191 304.289 443.95 306.18 445.565 307.631C448.018 307.071 450.699 304.991 436.736 297.257L432.915 271.69L377.665 273.159L373.844 297.551C373.844 297.551 358.039 305.949 365.6 307.572Z" fill="black"/>
<path d="M520.706 103.149H289.287C284.453 103.149 280.535 107.068 280.535 111.901V267.787C280.535 272.621 284.453 276.539 289.287 276.539H520.706C525.539 276.539 529.458 272.621 529.458 267.787V111.901C529.458 107.068 525.539 103.149 520.706 103.149Z" fill="#2F2E41"/>
<path d="M521.082 112.407H288.91V242.302H521.082V112.407Z" fill="#3F3D56"/>
<path d="M404.996 109.762C405.808 109.762 406.465 109.104 406.465 108.292C406.465 107.481 405.808 106.823 404.996 106.823C404.185 106.823 403.527 107.481 403.527 108.292C403.527 109.104 404.185 109.762 404.996 109.762Z" fill="#F2F2F2"/>
<path d="M529.458 252.588V267.787C529.458 268.936 529.232 270.075 528.792 271.136C528.352 272.198 527.707 273.163 526.895 273.976C526.082 274.789 525.117 275.433 524.055 275.873C522.993 276.313 521.855 276.539 520.706 276.539H289.287C288.137 276.539 286.999 276.313 285.937 275.873C284.875 275.433 283.91 274.789 283.098 273.976C282.285 273.163 281.64 272.198 281.201 271.136C280.761 270.075 280.535 268.936 280.535 267.787V252.588H529.458Z" fill="#2F2E41"/>
<path d="M469.945 323.707V326.646H311.833V324.294L312.051 323.707L315.948 313.127H466.712L469.945 323.707Z" fill="#2F2E41"/>
<path d="M530.792 320.83C530.504 322.061 529.416 323.36 526.96 324.588C518.143 328.997 500.216 323.413 500.216 323.413C500.216 323.413 486.403 321.062 486.403 314.89C486.791 314.625 487.195 314.384 487.614 314.17C491.321 312.209 503.611 307.37 525.403 314.375C527.009 314.879 528.443 315.819 529.546 317.09C530.429 318.123 531.121 319.435 530.792 320.83Z" fill="#2F2E41"/>
<path opacity="0.1" d="M530.792 320.83C520 324.965 510.381 325.273 500.51 318.417C495.531 314.961 491.008 314.106 487.614 314.17C491.321 312.209 503.611 307.37 525.403 314.375C527.009 314.879 528.443 315.819 529.545 317.09C530.429 318.123 531.121 319.435 530.792 320.83Z" fill="black"/>
<path d="M517.261 318.417C519.371 318.417 521.082 317.891 521.082 317.241C521.082 316.592 519.371 316.066 517.261 316.066C515.151 316.066 513.441 316.592 513.441 317.241C513.441 317.891 515.151 318.417 517.261 318.417Z" fill="#F2F2F2"/>
<path d="M404.996 270.22C408.08 270.22 410.58 267.721 410.58 264.637C410.58 261.553 408.08 259.053 404.996 259.053C401.912 259.053 399.412 261.553 399.412 264.637C399.412 267.721 401.912 270.22 404.996 270.22Z" fill="#F2F2F2"/>
<path opacity="0.1" d="M469.945 323.707V326.646H311.833V324.294L312.051 323.707H469.945Z" fill="black"/>
<path d="M153.552 77.1116H52.6743V194.476H153.552V77.1116Z" fill="#2F2E41"/>
<path d="M163.737 65.4721H42.4895V107.18H163.737V65.4721Z" fill="#3F3D56"/>
<path d="M163.737 114.94H42.4895V156.648H163.737V114.94Z" fill="#3F3D56"/>
<path d="M163.737 164.408H42.4895V206.116H163.737V164.408Z" fill="#3F3D56"/>
<path opacity="0.4" d="M139.488 72.7468H131.728V80.5064H139.488V72.7468Z" fill="#EF2A4F"/>
<path opacity="0.8" d="M150.642 72.7468H142.883V80.5064H150.642V72.7468Z" fill="#EF2A4F"/>
<path d="M161.797 72.7468H154.037V80.5064H161.797V72.7468Z" fill="#EF2A4F"/>
<path opacity="0.4" d="M139.488 121.73H131.728V129.489H139.488V121.73Z" fill="#EF2A4F"/>
<path opacity="0.8" d="M150.642 121.73H142.883V129.489H150.642V121.73Z" fill="#EF2A4F"/>
<path d="M161.797 121.73H154.037V129.489H161.797V121.73Z" fill="#EF2A4F"/>
<path opacity="0.4" d="M139.488 170.712H131.728V178.472H139.488V170.712Z" fill="#EF2A4F"/>
<path opacity="0.8" d="M150.642 170.712H142.883V178.472H150.642V170.712Z" fill="#EF2A4F"/>
<path d="M161.797 170.712H154.037V178.472H161.797V170.712Z" fill="#EF2A4F"/>
<path d="M153.553 299.232C174.713 299.232 191.867 282.078 191.867 260.918C191.867 239.759 174.713 222.605 153.553 222.605C132.392 222.605 115.238 239.759 115.238 260.918C115.238 282.078 132.392 299.232 153.553 299.232Z" fill="#2F2E41"/>
<path d="M147.733 290.987H136.093V311.841H147.733V290.987Z" fill="#2F2E41"/>
<path d="M171.012 290.987H159.372V311.841H171.012V290.987Z" fill="#2F2E41"/>
<path d="M145.793 315.721C151.15 315.721 155.492 314.093 155.492 312.084C155.492 310.075 151.15 308.446 145.793 308.446C140.436 308.446 136.093 310.075 136.093 312.084C136.093 314.093 140.436 315.721 145.793 315.721Z" fill="#2F2E41"/>
<path d="M169.072 315.236C174.429 315.236 178.772 313.608 178.772 311.599C178.772 309.59 174.429 307.961 169.072 307.961C163.715 307.961 159.372 309.59 159.372 311.599C159.372 313.608 163.715 315.236 169.072 315.236Z" fill="#2F2E41"/>
<path d="M154.522 264.313C161.755 264.313 167.617 258.451 167.617 251.219C167.617 243.987 161.755 238.124 154.522 238.124C147.29 238.124 141.428 243.987 141.428 251.219C141.428 258.451 147.29 264.313 154.522 264.313Z" fill="white"/>
<path d="M154.522 255.584C156.933 255.584 158.887 253.63 158.887 251.219C158.887 248.808 156.933 246.854 154.522 246.854C152.112 246.854 150.157 248.808 150.157 251.219C150.157 253.63 152.112 255.584 154.522 255.584Z" fill="#3F3D56"/>
<path d="M116.386 225.288C113.293 211.434 123.182 197.434 138.475 194.019C153.767 190.605 168.673 199.068 171.766 212.923C174.86 226.777 164.725 231.887 149.432 235.302C134.139 238.716 119.48 239.143 116.386 225.288Z" fill="#EF2A4F"/>
<path d="M189.488 253.277C199.214 249.114 206.04 243.264 204.733 240.21C203.426 237.157 194.482 238.056 184.755 242.219C175.028 246.382 168.203 252.233 169.509 255.286C170.816 258.339 179.761 257.44 189.488 253.277Z" fill="#2F2E41"/>
<path d="M117.709 278.981C127.436 274.818 134.261 268.968 132.954 265.914C131.647 262.861 122.703 263.76 112.976 267.923C103.249 272.086 96.4237 277.936 97.7306 280.99C99.0376 284.043 107.982 283.144 117.709 278.981Z" fill="#2F2E41"/>
<path d="M175.862 272.073C175.862 275.823 166.206 283.227 155.492 283.227C144.778 283.227 134.638 276.308 134.638 272.558C134.638 268.808 144.778 269.648 155.492 269.648C166.206 269.648 175.862 268.323 175.862 272.073Z" fill="white"/>
<path d="M363.152 203V193.944H343.184V187.064L360.016 155.736H372.848V186.456H378.48V193.944H372.848V203H363.152ZM350.64 190.712L347.984 186.456H363.152V162.072L365.168 162.616L350.64 190.712ZM405.998 203.768C402.99 203.768 400.43 203.117 398.318 201.816C396.227 200.515 394.521 198.744 393.198 196.504C391.897 194.243 390.947 191.651 390.35 188.728C389.753 185.805 389.454 182.733 389.454 179.512C389.454 176.291 389.753 173.219 390.35 170.296C390.947 167.352 391.897 164.739 393.198 162.456C394.521 160.173 396.227 158.381 398.318 157.08C400.43 155.757 402.99 155.096 405.998 155.096C409.006 155.096 411.555 155.757 413.646 157.08C415.758 158.381 417.465 160.173 418.766 162.456C420.089 164.739 421.049 167.352 421.646 170.296C422.243 173.219 422.542 176.291 422.542 179.512C422.542 182.733 422.243 185.805 421.646 188.728C421.049 191.651 420.089 194.243 418.766 196.504C417.465 198.744 415.758 200.515 413.646 201.816C411.555 203.117 409.006 203.768 405.998 203.768ZM405.998 196.056C407.427 196.056 408.622 195.512 409.582 194.424C410.563 193.315 411.299 191.544 411.79 189.112C412.281 186.68 412.526 183.48 412.526 179.512C412.526 175.523 412.281 172.323 411.79 169.912C411.299 167.48 410.563 165.709 409.582 164.6C408.622 163.491 407.427 162.936 405.998 162.936C404.59 162.936 403.395 163.491 402.414 164.6C401.433 165.709 400.697 167.48 400.206 169.912C399.715 172.323 399.47 175.523 399.47 179.512C399.47 183.501 399.715 186.712 400.206 189.144C400.697 191.555 401.433 193.315 402.414 194.424C403.395 195.512 404.59 196.056 405.998 196.056ZM452.89 203V193.944H432.922V187.064L449.754 155.736H462.586V186.456H468.218V193.944H462.586V203H452.89ZM440.378 190.712L437.722 186.456H452.89V162.072L454.906 162.616L440.378 190.712Z" fill="#EF2A4F"/>
</g>
<defs>
<clipPath id="clip0_159_175">
<rect width="543" height="339" fill="white"/>
</clipPath>
</defs>
</svg>
