<svg width="574" height="403" viewBox="0 0 574 403" fill="none" xmlns="http://www.w3.org/2000/svg">
<g clip-path="url(#clip0_111_454)">
<path d="M453.301 402.268C450.452 402.266 447.617 401.875 444.874 401.104L331.006 370.624L331.34 369.426L445.21 399.906C447.843 400.646 450.566 401.022 453.301 401.023C466.702 401.023 478.587 393.259 482.204 380.359L563.261 91.2886L563.437 90.6594C565.566 82.9999 564.573 74.8087 560.675 67.8802C556.776 60.9518 550.291 55.8508 542.639 53.6948L359.607 2.36879C351.945 0.230406 343.747 1.2183 336.812 5.11581C329.877 9.01332 324.771 15.5023 322.614 23.1594L316.254 45.8436L315.056 45.5077L321.416 22.8235C323.662 14.8485 328.98 8.09026 336.203 4.03107C343.426 -0.0281218 351.963 -1.0568 359.943 1.17066L542.975 52.4967C550.846 54.7141 557.537 59.9251 561.614 67.0139C565.691 74.1027 566.831 82.5061 564.789 90.4249L564.795 90.4264L564.627 91.0255L483.402 380.695C479.635 394.129 467.257 402.268 453.301 402.268Z" fill="white"/>
<path d="M323.371 52.3031L325.455 52.8879L331.869 54.686L332.541 52.2844L330.14 51.6125L332.249 44.0905L337.319 39.6855L338.67 54.0078L334.937 52.9564L334.265 55.3579L343.846 58.0457L344.518 55.6441L342.483 55.078L340.53 36.8982L350.484 28.2439L353.278 29.0278L353.95 26.6263L344.362 23.9385L343.69 26.3401L346.851 27.2235L334.19 37.172L337.699 24.6602L340.1 25.3322L340.772 22.9306L331.185 20.2428L330.513 22.6444L334.109 23.6523L326.55 50.6046L322.954 49.5967L322.861 49.9202L322.475 51.3139L323.371 52.3031Z" fill="#EF2A4F"/>
<path d="M338.794 75.0122C336.4 76.0491 334.063 77.2143 331.795 78.5026C331.378 78.739 330.961 78.9816 330.551 79.2243V71.5281C330.554 68.7595 330.162 66.0046 329.387 63.3466C329.748 63.1226 330.115 62.88 330.476 62.6373C330.806 62.4196 331.142 62.1956 331.471 61.9716C333.519 66.528 335.969 70.8922 338.794 75.0122Z" fill="#EF2A4F"/>
<path d="M452.82 380.668L450.029 379.885L449.357 382.281L458.942 384.969L459.614 382.573L456.457 381.688L469.114 371.735L465.604 384.253L463.208 383.581L462.536 385.977L472.121 388.665L472.793 386.269L469.198 385.261L476.758 358.303L480.352 359.311L481.024 356.915L471.439 354.227L470.767 356.623L473.163 357.295L471.054 364.819L465.986 369.224L464.639 354.905L468.371 355.951L469.043 353.555L459.459 350.867L458.787 353.263L460.823 353.834L462.778 372.012L452.82 380.668Z" fill="#EF2A4F"/>
<path d="M464.509 333.899C468.995 331.974 473.262 329.576 477.238 326.745C479.368 331.26 481.817 335.617 484.566 339.785C480.109 341.767 475.848 344.162 471.837 346.938C469.786 342.383 467.334 338.019 464.509 333.899Z" fill="#EF2A4F"/>
<path d="M380.569 204.358C380.569 204.358 377.422 224.799 376.487 225.829C375.552 226.859 383.02 250.923 383.02 250.923L406.966 236.961C406.966 236.961 411.625 211.128 413.159 210.266C414.693 209.404 380.569 204.358 380.569 204.358Z" fill="#FFB8B8"/>
<path opacity="0.1" d="M380.569 204.358C380.569 204.358 377.422 224.799 376.487 225.829C375.552 226.859 383.02 250.923 383.02 250.923L406.966 236.961C406.966 236.961 411.625 211.128 413.159 210.266C414.693 209.404 380.569 204.358 380.569 204.358Z" fill="black"/>
<path d="M399.095 224.149C412.152 224.149 422.737 213.564 422.737 200.507C422.737 187.45 412.152 176.865 399.095 176.865C386.038 176.865 375.454 187.45 375.454 200.507C375.454 213.564 386.038 224.149 399.095 224.149Z" fill="#FFB8B8"/>
<path d="M388.848 237.05L386.788 235.18L377.528 221.999C377.528 221.999 376.465 221.3 375.457 224.894L374.449 228.489L365.749 231.864L346.498 314.344L398.016 328.791L419.232 246.216L409.267 235.668L408.163 230.578L392.779 236.859L388.848 237.05Z" fill="white"/>
<path d="M330.551 322.796L331.795 323.145L412.027 345.642L438.854 256.89C438.854 256.89 432.508 251.876 427.544 251.129C427.544 251.129 419.207 241.685 415.617 240.677C412.021 239.669 408.046 230.803 408.046 230.803C408.046 230.803 403.846 245.778 396.629 255.385C389.412 264.991 376.845 298.302 376.845 298.302L373.298 237.211L377.28 221.85C374.965 223.221 372.858 224.916 371.021 226.883C368.215 229.969 361.055 232.483 361.055 232.483C361.055 232.483 342.191 237.535 338.856 237.896C335.528 238.25 333.991 239.115 333.991 239.115L331.795 254.227L330.551 262.788V322.796Z" fill="#2F2E41"/>
<path d="M341.5 288.391C340.754 293.349 333.076 313.812 333.076 313.812L331.795 315.1L330.551 316.351V240.565C330.897 240.189 331.322 239.894 331.795 239.7C332.498 239.408 333.236 239.211 333.991 239.115L336.393 239.787C336.393 239.787 342.247 283.426 341.5 288.391Z" fill="#2F2E41"/>
<path d="M396.152 314.699C396.152 314.699 407.927 293.447 416.839 298.531C425.752 303.615 411.464 317.7 411.464 317.7L396.152 314.699Z" fill="#FFB8B8"/>
<path d="M359.705 306.417C359.705 306.417 337.11 299.435 336.606 301.232C336.102 303.029 329.915 313.571 331.712 314.075C333.509 314.579 347.455 317.844 347.287 318.443C347.119 319.042 353.972 322.256 353.972 322.256L359.705 306.417Z" fill="#FFB8B8"/>
<path d="M403.756 239.216L389.375 239.782L386.38 238.942L374.389 230.981L370.418 242.866L385.54 241.937L388.535 242.777L400.969 251.433L403.756 239.216Z" fill="#EF2A4F"/>
<path d="M365.111 328.614L362.902 333.317L331.173 324.607L330.551 322.796V312.823L331.795 313.308L333.076 313.812L365.111 328.614Z" fill="#2F2E41"/>
<path d="M366.295 308.265C366.295 308.265 358.843 304.883 358.675 305.482C358.507 306.081 348.507 323.308 350.904 323.98C353.3 324.652 361.781 328.969 361.781 328.969L366.295 308.265Z" fill="white"/>
<path d="M434.661 255.712L438.854 256.888C438.854 256.888 441.251 257.56 441.441 261.49C441.631 265.42 444.883 283.779 443.349 284.641C441.815 285.503 441.384 284.736 442.246 286.27C443.108 287.804 443.875 287.373 442.94 288.403C442.005 289.434 439.86 322.432 432.906 333.406C425.952 344.379 423.841 349.603 421.445 348.931L359.335 331.514C359.335 331.514 362.101 307.089 364.666 307.162C367.23 307.235 409.236 316.429 409.236 316.429C409.236 316.429 425.507 253.791 434.661 255.712Z" fill="#2F2E41"/>
<path d="M385.166 174.594L381.287 171.812C381.287 171.812 392.85 165.313 405.195 169.622L402.652 165.097C402.652 165.097 412.172 164.378 417.712 174.826C420.625 180.319 423.973 186.753 425.341 193.328L429.967 194.625L426.953 197.945L432.628 203.701L425.887 201.063C425.609 204.58 424.416 207.964 422.427 210.879L419.645 214.758C419.645 214.758 416.886 200.431 417.326 198.86L416.225 202.787C416.225 202.787 412.897 198.041 413.558 195.685L410.431 197.773L410.464 193.124L394.725 193.369L398.072 190.496L388.71 189.141L393.455 185.813C393.455 185.813 381.815 188.055 380.211 192.264C378.607 196.473 371.961 200.539 371.961 200.539L370.706 195.952C370.706 195.952 372.127 177.291 385.166 174.594Z" fill="#2F2E41"/>
<path d="M377.038 183.1L377.223 182.294C379.021 174.467 365.192 159.911 365.052 159.765L364.806 159.509L364.902 159.167C365.176 158.191 366.273 157.324 375.889 159.409C379.633 160.22 383.366 161.21 384.93 161.634C384.755 157.165 379.215 151.244 379.156 151.181L378.459 150.443L379.434 150.157C385.82 148.285 393.295 154.494 395.684 156.692L399.678 142.451L407.58 154.123C412.431 146.861 419.448 147.155 419.754 147.172L420.739 147.226L420.266 148.092C416.942 154.174 416.343 158.169 416.308 160.138C425.153 149.63 433.123 150.546 433.47 150.592L434.678 150.751L433.84 151.636C422.262 163.871 420.898 180.011 420.886 180.172L420.844 180.716L377.038 183.1ZM366.43 159.416C368.875 162.066 379.448 174.025 378.572 181.77L419.702 179.532C420.041 176.653 422.127 162.953 431.962 151.846C429.282 152.085 422.959 153.613 416.299 162.125L415.536 163.1L415.209 161.905C415.158 161.717 414.044 157.341 418.664 148.452C416.546 148.653 411.615 149.761 408.131 155.579L407.629 156.416L400.151 145.371L396.313 159.058L395.56 158.295C395.476 158.21 387.453 150.177 380.782 151.135C382.494 153.129 386.592 158.381 386.143 162.509L386.064 163.24L385.356 163.041C377.5 160.838 368.526 158.958 366.43 159.416Z" fill="#EF2A4F"/>
<path d="M436.57 147.314C436.145 147.195 435.765 146.952 435.478 146.617C435.191 146.282 435.009 145.869 434.957 145.431C434.904 144.992 434.983 144.548 435.183 144.155C435.383 143.761 435.695 143.436 436.079 143.22C436.464 143.003 436.904 142.906 437.344 142.94C437.784 142.974 438.205 143.138 438.552 143.41C438.899 143.683 439.157 144.053 439.294 144.472C439.431 144.892 439.441 145.343 439.321 145.768C439.161 146.337 438.781 146.82 438.265 147.11C437.75 147.4 437.14 147.473 436.57 147.314ZM437.439 144.214C437.251 144.162 437.052 144.166 436.866 144.227C436.68 144.287 436.517 144.401 436.396 144.555C436.276 144.709 436.203 144.894 436.188 145.089C436.173 145.284 436.216 145.479 436.312 145.649C436.408 145.819 436.552 145.957 436.726 146.045C436.9 146.134 437.096 146.169 437.29 146.145C437.484 146.122 437.667 146.042 437.815 145.915C437.963 145.788 438.071 145.62 438.123 145.432C438.194 145.18 438.161 144.91 438.033 144.682C437.905 144.453 437.691 144.285 437.439 144.214Z" fill="#EF2A4F"/>
<path d="M421.073 142.968C420.648 142.849 420.268 142.606 419.981 142.271C419.694 141.936 419.512 141.523 419.46 141.085C419.407 140.647 419.486 140.203 419.686 139.809C419.885 139.416 420.197 139.09 420.582 138.874C420.967 138.658 421.407 138.56 421.847 138.594C422.287 138.628 422.707 138.792 423.055 139.065C423.402 139.337 423.66 139.707 423.797 140.127C423.934 140.546 423.943 140.997 423.824 141.422C423.664 141.991 423.284 142.474 422.768 142.764C422.253 143.054 421.643 143.127 421.073 142.968ZM421.942 139.869C421.754 139.816 421.555 139.82 421.369 139.881C421.183 139.941 421.02 140.056 420.899 140.209C420.779 140.363 420.706 140.549 420.691 140.743C420.676 140.938 420.719 141.133 420.815 141.303C420.911 141.473 421.055 141.611 421.229 141.7C421.403 141.788 421.599 141.823 421.793 141.8C421.987 141.776 422.17 141.696 422.318 141.569C422.466 141.442 422.573 141.274 422.626 141.086C422.697 140.834 422.664 140.564 422.536 140.336C422.408 140.108 422.194 139.94 421.942 139.869Z" fill="#EF2A4F"/>
<path d="M397.516 140.541C397.091 140.422 396.711 140.18 396.424 139.845C396.137 139.509 395.955 139.097 395.903 138.658C395.85 138.22 395.929 137.776 396.129 137.383C396.328 136.989 396.64 136.663 397.025 136.447C397.41 136.231 397.85 136.134 398.29 136.168C398.73 136.202 399.15 136.365 399.498 136.638C399.845 136.911 400.103 137.28 400.24 137.7C400.377 138.119 400.386 138.57 400.267 138.995C400.107 139.565 399.727 140.047 399.211 140.337C398.696 140.627 398.086 140.701 397.516 140.541ZM398.385 137.442C398.197 137.389 397.998 137.394 397.812 137.454C397.626 137.515 397.463 137.629 397.342 137.783C397.222 137.936 397.149 138.122 397.134 138.317C397.119 138.511 397.162 138.706 397.258 138.876C397.354 139.047 397.498 139.185 397.672 139.273C397.846 139.361 398.042 139.396 398.236 139.373C398.43 139.35 398.613 139.27 398.761 139.142C398.909 139.015 399.016 138.847 399.069 138.659C399.14 138.407 399.107 138.137 398.979 137.909C398.851 137.681 398.637 137.513 398.385 137.442Z" fill="#EF2A4F"/>
<path d="M359.909 158.413C359.484 158.294 359.104 158.051 358.817 157.716C358.53 157.381 358.349 156.968 358.296 156.53C358.244 156.091 358.322 155.647 358.522 155.254C358.722 154.86 359.034 154.535 359.419 154.319C359.803 154.102 360.244 154.005 360.684 154.039C361.124 154.073 361.544 154.237 361.891 154.509C362.238 154.782 362.496 155.152 362.633 155.571C362.77 155.991 362.78 156.442 362.661 156.867C362.5 157.436 362.121 157.919 361.605 158.209C361.089 158.499 360.479 158.572 359.909 158.413ZM360.778 155.313C360.59 155.261 360.391 155.265 360.205 155.325C360.02 155.386 359.856 155.5 359.736 155.654C359.615 155.807 359.543 155.993 359.528 156.188C359.512 156.383 359.556 156.578 359.651 156.748C359.747 156.918 359.891 157.056 360.065 157.144C360.239 157.233 360.436 157.268 360.629 157.244C360.823 157.221 361.006 157.141 361.154 157.014C361.303 156.887 361.41 156.719 361.463 156.531C361.533 156.278 361.5 156.009 361.372 155.781C361.244 155.552 361.03 155.384 360.778 155.313Z" fill="#EF2A4F"/>
<path d="M374.451 148.282C374.026 148.163 373.646 147.92 373.359 147.585C373.072 147.25 372.89 146.837 372.838 146.399C372.785 145.961 372.864 145.517 373.064 145.123C373.264 144.729 373.576 144.404 373.96 144.188C374.345 143.971 374.785 143.874 375.225 143.908C375.665 143.942 376.086 144.106 376.433 144.379C376.78 144.651 377.038 145.021 377.175 145.44C377.312 145.86 377.322 146.311 377.202 146.736C377.042 147.305 376.662 147.788 376.146 148.078C375.631 148.368 375.021 148.441 374.451 148.282ZM375.32 145.183C375.132 145.13 374.933 145.134 374.747 145.195C374.562 145.255 374.398 145.37 374.277 145.523C374.157 145.677 374.084 145.862 374.069 146.057C374.054 146.252 374.097 146.447 374.193 146.617C374.289 146.787 374.433 146.925 374.607 147.014C374.781 147.102 374.977 147.137 375.171 147.113C375.365 147.09 375.548 147.01 375.696 146.883C375.844 146.756 375.952 146.588 376.004 146.4C376.075 146.148 376.042 145.878 375.914 145.65C375.786 145.422 375.572 145.253 375.32 145.183Z" fill="#EF2A4F"/>
<path d="M448.617 357.842L448.019 357.674L330.743 324.788L331.078 323.59L447.755 356.309L521.499 93.3213L357.061 47.21L331.981 136.656L330.782 136.32L356.2 45.6758L356.798 45.8438L523.033 92.4596L522.865 93.0582L448.617 357.842Z" fill="white"/>
<path d="M26.4026 381.919C34.1349 396.259 50.5457 402.415 50.5457 402.415C50.5457 402.415 54.4199 385.321 46.6876 370.981C38.9552 356.64 22.5444 350.484 22.5444 350.484C22.5444 350.484 18.6702 367.579 26.4026 381.919Z" fill="#2F2E41"/>
<path d="M31.7173 377.201C45.6774 385.6 51.0538 402.283 51.0538 402.283C51.0538 402.283 33.7966 405.348 19.8365 396.949C5.87646 388.55 0.5 371.867 0.5 371.867C0.5 371.867 17.7573 368.802 31.7173 377.201Z" fill="#EF2A4F"/>
<path d="M330.476 62.6373C329.405 59.1108 327.704 55.8076 325.455 52.8879C324.654 51.8446 323.788 50.8534 322.861 49.9202C320.019 47.0591 316.639 44.7889 312.915 43.2406C309.192 41.6922 305.199 40.8963 301.166 40.8988H111.075C102.954 40.907 95.1684 44.1367 89.4262 49.879C83.6841 55.6213 80.4545 63.4072 80.4463 71.5281V372.371C80.4545 380.492 83.6841 388.277 89.4262 394.02C95.1684 399.762 102.954 402.992 111.075 403H301.166C309.287 402.992 317.073 399.762 322.815 394.02C328.557 388.277 331.787 380.492 331.795 372.371V71.5281C331.798 68.5155 331.354 65.5192 330.476 62.6373ZM330.551 372.371C330.541 380.161 327.442 387.63 321.934 393.139C316.425 398.647 308.957 401.746 301.166 401.756H111.075C103.284 401.746 95.8159 398.647 90.3074 393.139C84.7988 387.63 81.7 380.161 81.6906 372.371V71.5281C81.7 63.7376 84.7988 56.2688 90.3074 50.7601C95.8159 45.2514 103.284 42.1525 111.075 42.1431H301.166C305.155 42.1413 309.103 42.9538 312.767 44.5306C316.431 46.1075 319.734 48.4157 322.475 51.3139C322.78 51.6374 323.079 51.9671 323.371 52.3031C328.002 57.6371 330.552 64.464 330.551 71.5281V372.371Z" fill="white"/>
<path d="M110.771 89.2471C110.737 89.166 110.694 89.0922 110.656 89.0142C112.059 86.2684 112.767 83.2203 112.718 80.1371C112.718 70.4926 106.691 63.7566 98.0622 63.7566C89.4333 63.7566 83.4064 70.4926 83.4064 80.1371C83.4064 89.7817 89.4333 96.5177 98.0622 96.5177C100.099 96.5588 102.12 96.1495 103.98 95.3188C105.84 94.4881 107.494 93.2567 108.823 91.7125C111.586 96.1835 116.927 96.7734 117.173 96.798L117.464 93.9388C117.263 93.9172 112.522 93.3624 110.771 89.2471ZM98.0622 93.6439C91.125 93.6439 86.2801 88.0897 86.2801 80.1371C86.2801 72.1846 91.125 66.6304 98.0622 66.6304C105 66.6304 109.844 72.1846 109.844 80.1371C109.872 82.4044 109.425 84.6524 108.532 86.7363C104.242 84.1302 96.2625 85.6874 95.1801 85.9156L95.7712 88.7279C98.7024 88.1141 104.534 87.6218 107.072 89.2144C106.03 90.6152 104.669 91.7476 103.102 92.5179C101.536 93.2882 99.8079 93.6742 98.0622 93.6439Z" fill="#EF2A4F"/>
<path d="M99.1108 103.353C98.1756 102.419 96.9077 101.895 95.586 101.895C94.2643 101.896 92.9968 102.421 92.0622 103.356C91.1276 104.29 90.6024 105.558 90.6019 106.879C90.6015 108.201 91.1258 109.469 92.0598 110.404L99.1108 117.456L106.162 110.404C107.094 109.469 107.616 108.201 107.615 106.881C107.614 105.56 107.089 104.294 106.155 103.36C105.221 102.426 103.955 101.901 102.634 101.9C101.314 101.899 100.046 102.421 99.1108 103.353Z" fill="#EF2A4F"/>
<path d="M301.47 356.579C301.505 356.66 301.547 356.734 301.585 356.812C300.182 359.557 299.474 362.605 299.523 365.689C299.523 375.333 305.55 382.069 314.179 382.069C322.808 382.069 328.835 375.333 328.835 365.689C328.835 356.044 322.808 349.308 314.179 349.308C312.142 349.267 310.121 349.676 308.261 350.507C306.401 351.338 304.747 352.569 303.418 354.113C300.655 349.642 295.314 349.052 295.068 349.028L294.777 351.887C294.978 351.909 299.719 352.463 301.47 356.579ZM314.179 352.182C321.116 352.182 325.961 357.736 325.961 365.689C325.961 373.641 321.116 379.195 314.179 379.195C307.242 379.195 302.397 373.641 302.397 365.689C302.369 363.421 302.816 361.173 303.709 359.09C307.999 361.696 315.979 360.138 317.061 359.91L316.47 357.098C313.539 357.712 307.707 358.204 305.169 356.611C306.211 355.211 307.572 354.078 309.139 353.308C310.705 352.538 312.433 352.152 314.179 352.182Z" fill="#EF2A4F"/>
<path d="M313.13 342.473C314.066 343.405 315.333 343.929 316.654 343.928C317.975 343.927 319.242 343.401 320.176 342.467C321.11 341.533 321.635 340.267 321.636 338.945C321.637 337.624 321.114 336.357 320.181 335.421L313.13 328.37L306.079 335.421C305.147 336.357 304.623 337.624 304.624 338.945C304.625 340.267 305.151 341.533 306.085 342.467C307.019 343.401 308.285 343.927 309.606 343.928C310.927 343.929 312.195 343.405 313.13 342.473Z" fill="#EF2A4F"/>
<path d="M221.454 211.815C212.984 197.503 196.227 196.836 196.227 196.836C196.227 196.836 179.898 194.748 169.423 216.545C159.659 236.862 146.184 256.479 167.253 261.235L171.059 249.39L173.416 262.117C176.416 262.333 179.425 262.384 182.431 262.271C204.994 261.542 226.482 262.484 225.79 254.387C224.87 243.624 229.604 225.586 221.454 211.815Z" fill="#2F2E41"/>
<path d="M190.207 260.578C190.248 262.189 190.236 263.888 189.436 265.286C187.849 268.059 183.975 268.474 181.644 270.659C179.194 272.957 178.917 276.687 178.8 280.044C178.678 283.555 178.574 287.18 179.855 290.451C180.64 292.252 181.631 293.956 182.81 295.528C184.233 297.579 185.669 299.621 187.118 301.653C187.892 302.798 188.754 303.88 189.697 304.89C192.292 307.533 195.852 308.997 199.406 310.041C201.702 310.715 204.182 311.241 206.46 310.508C207.967 309.919 209.357 309.065 210.562 307.985C212.257 306.64 213.977 305.266 215.205 303.485C217.119 300.709 217.648 297.235 218.045 293.888C219.217 283.989 219.673 274.018 219.41 264.054C219.458 262.968 219.263 261.885 218.84 260.884C217.66 258.58 214.5 258.088 212.835 256.106C211.411 254.412 211.353 251.993 211.365 249.78L211.396 244.146C211.446 243.671 211.35 243.192 211.122 242.773C210.916 242.547 210.667 242.364 210.389 242.235C210.112 242.105 209.812 242.032 209.506 242.019C206.004 241.438 202.454 241.2 198.906 241.31C196.03 241.398 190.511 241.157 188.023 242.759C185.766 244.213 188.592 248.23 189.115 250.486C189.818 253.805 190.184 257.186 190.207 260.578Z" fill="#A0616A"/>
<path d="M196.81 250.902C209.387 250.902 219.583 240.706 219.583 228.129C219.583 215.551 209.387 205.355 196.81 205.355C184.233 205.355 174.037 215.551 174.037 228.129C174.037 240.706 184.233 250.902 196.81 250.902Z" fill="#A0616A"/>
<path d="M187.432 284.537C185.984 282.384 184.792 280.069 183.881 277.639C183.066 275.178 182.853 272.427 183.819 270.022C181.358 268.594 178.017 269.75 176.225 271.96C174.433 274.17 173.884 277.132 173.726 279.973C173.568 282.814 173.736 285.696 173.118 288.473C171.75 294.618 166.675 299.669 166.297 305.953C165.926 312.134 170.165 317.519 172.25 323.35C173.514 326.985 174.042 330.834 173.804 334.675C173.737 335.914 173.659 337.327 174.534 338.209C174.989 338.606 175.527 338.896 176.11 339.058C186.172 342.598 197.041 342.904 207.705 343.174L225.318 343.621C226.383 343.748 227.462 343.567 228.428 343.1C230.008 342.131 230.219 339.959 230.246 338.106C230.478 322.143 229.799 306.183 229.12 290.233C228.874 284.452 228.624 278.637 227.398 272.982C227.086 271.543 226.574 269.941 225.245 269.306C224.119 268.768 222.785 269.116 221.615 269.548C216.155 271.578 211.437 275.211 208.078 279.969C204.464 285.112 202.686 291.283 199.149 296.465C196.583 300.226 195.098 296.948 193.388 294.179C191.404 290.964 189.418 287.751 187.432 284.537Z" fill="white"/>
<path d="M184.706 270.415C184.258 270.733 183.816 271.069 183.393 271.423C181.808 272.732 180.388 274.227 179.163 275.878C177.135 278.643 175.521 281.688 174.372 284.918C172.307 290.58 171.411 296.59 170.552 302.55C170.177 304.746 169.976 306.968 169.949 309.195C170.079 317.383 174.92 324.967 174.926 333.161C174.926 333.472 174.92 333.777 174.901 334.088C174.843 335.429 174.685 336.764 174.428 338.082C174.074 340.005 173.563 341.902 173.059 343.794C171.79 348.535 170.422 353.45 167.945 357.612C167.697 358.035 167.429 358.452 167.155 358.856H149.735C149.872 358.44 150.015 358.029 150.152 357.612C153.12 348.821 156.085 340.032 159.049 331.245C159.957 328.557 160.865 325.857 161.506 323.094C162.239 319.683 162.74 316.226 163.006 312.748C163.69 305.537 164.14 298.311 164.356 291.071C164.437 288.471 164.493 285.814 165.332 283.35C166.12 281.343 167.161 279.444 168.431 277.701C170.229 274.994 172.027 272.288 173.825 269.582C174.826 268.076 175.878 266.527 177.421 265.587C178.709 264.797 180.239 264.511 181.595 263.845C182.449 263.361 183.268 262.818 184.047 262.221C186.075 260.784 188.458 259.272 190.206 260.741C190.489 260.976 190.733 261.255 190.928 261.568C191.027 261.722 191.117 261.882 191.195 262.047C192.875 265.681 186.965 268.816 184.706 270.415Z" fill="#2F2E41"/>
<path d="M242.093 358.856H161.413C161.848 358.458 162.278 358.041 162.694 357.612C162.757 357.55 162.813 357.488 162.875 357.425C165.961 354.221 166.664 350.283 168.213 346.114C169.376 342.972 170.54 339.833 171.703 336.695C171.887 336.084 172.19 335.515 172.593 335.021C172.93 334.673 173.353 334.42 173.818 334.287C174.17 334.179 174.534 334.112 174.901 334.088C175.425 334.054 175.951 334.054 176.475 334.088C190.953 334.835 205.42 335.745 219.876 336.819C221.743 336.962 223.609 337.105 225.476 337.249C227 338.381 228.505 339.582 229.943 340.851C234.615 344.957 238.665 349.791 240.986 355.503C241.266 356.193 241.521 356.897 241.732 357.612C241.869 358.023 241.987 358.44 242.093 358.856Z" fill="#2F2E41"/>
<path d="M217.709 210.436L201.154 201.763L178.292 205.311L173.562 226.203L185.336 225.75L188.626 218.075V225.623L194.059 225.414L197.212 213.195L199.183 226.203L218.498 225.809L217.709 210.436Z" fill="#2F2E41"/>
<path d="M242.093 358.856H223.877C223.746 358.446 223.622 358.029 223.503 357.612C222.217 352.984 221.273 348.268 220.679 343.501C220.486 342.139 220.318 340.77 220.162 339.407C220.063 338.543 219.97 337.684 219.876 336.819C218.831 327.213 218.028 317.513 215.092 308.318C214.737 307.204 214.352 306.097 213.978 304.989C213.289 303.082 212.748 301.125 212.361 299.135C211.564 294.58 212.162 289.864 211.34 285.316C210.88 282.778 209.965 280.544 209.412 278.217C209.059 276.813 208.921 275.364 209.001 273.918C210.342 272.653 212.029 271.817 213.848 271.517C214.476 271.411 215.185 271.33 215.565 270.826C215.789 270.443 215.889 269.999 215.851 269.557C215.895 266.622 215.726 263.688 215.347 260.778C215.223 259.758 215.067 258.737 214.88 257.723C214.874 257.673 214.862 257.63 214.855 257.58C216.374 256.921 218.084 256.914 219.733 256.921C221.531 256.927 223.323 256.927 225.115 256.933C228.431 256.945 231.747 256.956 235.063 256.964C238.149 256.97 241.34 257.001 244.146 258.277C247.046 259.602 249.248 262.159 250.704 264.996C252.16 267.833 252.95 270.957 253.665 274.061C253.864 274.92 253.968 275.799 253.976 276.681C254.113 283.686 248.887 290.742 248.364 297.903C248.197 300.223 248.389 302.563 248.178 304.883C247.966 307.21 247.344 309.487 247.232 311.814C247.226 311.933 247.22 312.057 247.22 312.175C247.151 315.205 248.035 318.173 249.055 321.029C250.635 325.465 252.558 329.764 254.542 334.038C256.459 338.176 258.425 342.294 260.192 346.488C261.11 348.434 261.729 350.509 262.027 352.641C262.223 354.355 261.896 356.088 261.087 357.612C260.88 357.989 260.632 358.341 260.347 358.664L260.335 358.676C260.279 358.738 260.223 358.8 260.167 358.856H242.093Z" fill="#2F2E41"/>
<path d="M259.445 352.473C259.369 353.301 259.143 354.108 258.779 354.856C258.748 354.93 258.717 354.999 258.686 355.074C258.325 355.926 257.958 356.766 257.579 357.612C257.392 358.023 257.205 358.44 257.012 358.856H246.71C247.083 358.466 247.428 358.05 247.742 357.612C249.323 355.416 250.237 352.747 251.849 350.376C252.067 350.052 252.32 349.752 252.601 349.48C255.183 346.979 259.607 347.489 259.445 352.473Z" fill="#FFB8B8"/>
<path d="M266.152 358.856C266.284 358.448 266.394 358.032 266.482 357.612C266.556 357.282 266.618 356.959 266.668 356.629C266.998 354.458 266.992 352.237 267.508 350.103C268.236 347.048 270.42 343.433 268.622 340.863C270.021 340.576 271.339 339.986 272.485 339.134C273.555 338.2 274.178 336.583 273.53 335.314C272.89 334.063 271.154 333.236 271.39 331.848C271.508 331.408 271.716 330.997 272 330.641C272.944 329.153 273.431 327.421 273.404 325.659C273.376 323.897 272.834 322.182 271.844 320.724C271.278 319.915 270.582 319.206 270.065 318.36C269.5 317.325 269.068 316.223 268.777 315.081C266.981 309.291 264.333 303.802 260.92 298.792C260.163 297.828 259.576 296.743 259.184 295.582C258.954 294.324 258.908 293.039 259.047 291.768C259.171 286.741 257.292 281.832 254.586 277.601C254.387 277.29 254.182 276.985 253.976 276.681C251.363 272.829 248.122 269.451 244.893 266.098C243.562 266.72 242.386 267.124 241.695 268.418C241.356 269.148 241.148 269.931 241.079 270.733C240.196 276.892 239.43 283.089 238.833 289.279C238.535 292.409 238.23 295.563 238.584 298.687C238.939 301.81 240.003 304.939 242.118 307.26C243.443 308.716 245.123 309.799 246.56 311.142C246.791 311.36 247.014 311.584 247.232 311.814C248.268 312.918 249.188 314.125 249.976 315.417C253.424 320.987 255.022 327.505 254.543 334.038C254.456 335.216 254.3 336.388 254.076 337.547C253.803 339.207 253.243 340.807 252.421 342.276C251.768 343.352 250.909 344.291 250.318 345.405C249.727 346.519 249.447 347.906 250.032 349.02C250.909 349.019 251.779 349.175 252.601 349.48C254.538 350.227 256.222 351.512 257.454 353.182C257.908 353.783 258.32 354.415 258.686 355.074C259.148 355.894 259.559 356.742 259.918 357.612C260.067 357.954 260.21 358.309 260.347 358.664C260.378 358.725 260.403 358.79 260.422 358.856H266.152Z" fill="#2F2E41"/>
<path d="M215.285 250.612L202.093 256.366L198.998 256.672L184.934 253.615L185.554 266.129L199.304 259.768L202.399 259.462L217.129 263.006L215.285 250.612Z" fill="#EF2A4F"/>
<path d="M241.732 357.612C241.869 358.023 241.987 358.44 242.093 358.856H246.71C247.083 358.466 247.428 358.051 247.742 357.612H241.732ZM119.797 84.4807V358.856H291.822V84.4807H119.797ZM290.577 357.612H121.042V85.7251H290.577V357.612ZM241.732 357.612C241.869 358.023 241.987 358.44 242.093 358.856H246.71C247.083 358.466 247.428 358.051 247.742 357.612H241.732Z" fill="white"/>
<path d="M176.32 204.517L176.427 203.982C176.458 203.823 179.503 187.915 171.658 173.008L171.091 171.93L172.297 172.103C172.643 172.152 180.564 173.423 186.243 185.929C186.742 184.023 187.244 180.015 185.685 173.261L185.463 172.3L186.426 172.514C186.726 172.58 193.562 174.192 196.272 182.494L207.032 173.389V188.179C209.926 186.708 218.8 182.747 224.444 186.274L225.305 186.813L224.434 187.335C224.36 187.38 217.428 191.585 216.053 195.841C217.673 195.855 221.535 195.91 225.359 196.14C235.18 196.729 236.003 197.86 236.003 198.873V199.228L235.697 199.409C235.523 199.512 218.277 209.793 217.895 217.815L217.856 218.64L176.32 204.517ZM215.262 197.081H214.527L214.648 196.357C215.331 192.26 220.694 188.309 222.881 186.852C216.716 184.128 206.822 189.697 206.718 189.756L205.788 190.288V176.072L195.605 184.688L195.348 183.746C193.564 177.204 189.116 174.806 187.131 174.041C189.178 183.847 186.925 187.76 186.825 187.927L186.188 188.989L185.716 187.844C181.601 177.85 175.926 174.672 173.41 173.717C179.881 187.067 178.19 200.822 177.739 203.686L216.738 216.946C217.985 209.253 231.394 200.592 234.464 198.701C232.569 197.694 223.422 197.081 215.262 197.081Z" fill="#EF2A4F"/>
<path d="M167.965 165.878C167.965 165.437 168.096 165.005 168.341 164.638C168.586 164.271 168.935 163.985 169.343 163.816C169.75 163.647 170.199 163.603 170.632 163.689C171.065 163.775 171.462 163.988 171.775 164.3C172.087 164.612 172.299 165.01 172.385 165.443C172.471 165.876 172.427 166.324 172.258 166.732C172.089 167.14 171.803 167.488 171.436 167.734C171.069 167.979 170.638 168.11 170.197 168.11C169.605 168.109 169.038 167.874 168.619 167.455C168.201 167.037 167.966 166.47 167.965 165.878ZM169.209 165.878C169.209 166.073 169.267 166.264 169.376 166.427C169.484 166.589 169.638 166.715 169.819 166.79C169.999 166.865 170.198 166.884 170.389 166.846C170.581 166.808 170.757 166.714 170.895 166.576C171.033 166.438 171.127 166.262 171.165 166.071C171.203 165.879 171.183 165.681 171.109 165.5C171.034 165.32 170.907 165.166 170.745 165.057C170.583 164.949 170.392 164.891 170.197 164.891C169.935 164.891 169.684 164.995 169.499 165.18C169.314 165.365 169.21 165.616 169.209 165.878Z" fill="#EF2A4F"/>
<path d="M184.06 165.878C184.06 165.437 184.191 165.005 184.436 164.638C184.681 164.271 185.03 163.985 185.437 163.816C185.845 163.647 186.294 163.603 186.727 163.689C187.16 163.775 187.557 163.988 187.869 164.3C188.181 164.612 188.394 165.01 188.48 165.443C188.566 165.876 188.522 166.324 188.353 166.732C188.184 167.14 187.898 167.488 187.531 167.734C187.164 167.979 186.733 168.11 186.291 168.11C185.7 168.109 185.132 167.874 184.714 167.455C184.296 167.037 184.06 166.47 184.06 165.878ZM185.304 165.878C185.304 166.073 185.362 166.264 185.47 166.427C185.579 166.589 185.733 166.715 185.913 166.79C186.094 166.865 186.292 166.884 186.484 166.846C186.675 166.808 186.851 166.714 186.989 166.576C187.128 166.438 187.222 166.262 187.26 166.071C187.298 165.879 187.278 165.681 187.203 165.5C187.129 165.32 187.002 165.166 186.84 165.057C186.677 164.949 186.487 164.891 186.291 164.891C186.03 164.891 185.779 164.995 185.594 165.18C185.408 165.365 185.304 165.616 185.304 165.878Z" fill="#EF2A4F"/>
<path d="M207.397 169.902C207.397 169.461 207.528 169.029 207.773 168.662C208.018 168.295 208.367 168.009 208.775 167.84C209.182 167.671 209.631 167.627 210.064 167.713C210.497 167.799 210.894 168.012 211.207 168.324C211.519 168.636 211.731 169.034 211.817 169.467C211.903 169.9 211.859 170.348 211.69 170.756C211.521 171.164 211.235 171.512 210.868 171.758C210.501 172.003 210.07 172.134 209.629 172.134C209.037 172.133 208.47 171.898 208.051 171.479C207.633 171.061 207.398 170.494 207.397 169.902ZM208.641 169.902C208.641 170.097 208.699 170.288 208.808 170.451C208.916 170.613 209.07 170.739 209.251 170.814C209.431 170.889 209.63 170.908 209.821 170.87C210.013 170.832 210.189 170.738 210.327 170.6C210.465 170.462 210.559 170.286 210.597 170.095C210.635 169.903 210.615 169.705 210.541 169.524C210.466 169.344 210.339 169.19 210.177 169.081C210.015 168.973 209.824 168.915 209.629 168.915C209.367 168.915 209.116 169.019 208.931 169.204C208.746 169.389 208.642 169.64 208.641 169.902Z" fill="#EF2A4F"/>
<path d="M238.782 197.264C238.782 196.822 238.913 196.391 239.158 196.024C239.403 195.657 239.752 195.371 240.159 195.202C240.567 195.033 241.016 194.989 241.449 195.075C241.882 195.161 242.279 195.374 242.591 195.686C242.904 195.998 243.116 196.395 243.202 196.828C243.288 197.261 243.244 197.71 243.075 198.118C242.906 198.525 242.62 198.874 242.253 199.119C241.886 199.364 241.455 199.495 241.013 199.495C240.422 199.495 239.855 199.259 239.436 198.841C239.018 198.423 238.782 197.855 238.782 197.264ZM240.026 197.264C240.026 197.459 240.084 197.65 240.193 197.812C240.301 197.975 240.455 198.101 240.636 198.176C240.816 198.251 241.015 198.27 241.206 198.232C241.398 198.194 241.574 198.1 241.712 197.962C241.85 197.824 241.944 197.648 241.982 197.456C242.02 197.265 242 197.066 241.926 196.886C241.851 196.705 241.724 196.551 241.562 196.443C241.4 196.334 241.209 196.276 241.013 196.276C240.752 196.277 240.501 196.381 240.316 196.566C240.131 196.751 240.026 197.002 240.026 197.264Z" fill="#EF2A4F"/>
<path d="M227.515 183.583C227.515 183.141 227.646 182.71 227.891 182.343C228.137 181.976 228.485 181.69 228.893 181.521C229.301 181.352 229.75 181.308 230.182 181.394C230.615 181.48 231.013 181.692 231.325 182.004C231.637 182.317 231.85 182.714 231.936 183.147C232.022 183.58 231.978 184.029 231.809 184.437C231.64 184.845 231.354 185.193 230.987 185.438C230.62 185.684 230.188 185.814 229.747 185.814C229.155 185.814 228.588 185.578 228.17 185.16C227.751 184.742 227.516 184.174 227.515 183.583ZM228.76 183.583C228.76 183.778 228.818 183.969 228.926 184.131C229.035 184.294 229.189 184.42 229.369 184.495C229.55 184.57 229.748 184.589 229.94 184.551C230.131 184.513 230.307 184.419 230.445 184.281C230.583 184.143 230.678 183.967 230.716 183.775C230.754 183.584 230.734 183.385 230.659 183.205C230.585 183.024 230.458 182.87 230.296 182.762C230.133 182.653 229.942 182.595 229.747 182.595C229.485 182.596 229.234 182.7 229.049 182.885C228.864 183.07 228.76 183.321 228.76 183.583Z" fill="#EF2A4F"/>
<path d="M573.5 401.475H7.96582V402.719H573.5V401.475Z" fill="white"/>
</g>
<defs>
<clipPath id="clip0_111_454">
<rect width="573" height="403" fill="white" transform="translate(0.5)"/>
</clipPath>
</defs>
</svg>
