<svg viewBox="0 0 370 532" fill="none" xmlns="http://www.w3.org/2000/svg">
<path d="M367.564 31.9139C365.992 26.7367 363.495 21.8873 360.193 17.6011C359.017 16.0694 357.745 14.6141 356.384 13.2442C352.212 9.04389 347.25 5.71109 341.784 3.43798C336.317 1.16487 330.455 -0.0035851 324.535 8.26289e-06H45.465C33.5433 0.0120984 22.1133 4.75348 13.6833 13.1837C5.25334 21.6139 0.51209 33.0442 0.5 44.9663V486.628C0.51209 498.55 5.25334 509.98 13.6833 518.41C22.1133 526.84 33.5433 531.582 45.465 531.594H324.535C336.457 531.582 347.887 526.84 356.317 518.41C364.747 509.98 369.488 498.55 369.5 486.628V44.9663C369.505 40.5436 368.852 36.1447 367.564 31.9139ZM367.673 486.628C367.659 498.065 363.11 509.029 355.023 517.117C346.936 525.204 335.972 529.753 324.535 529.767H45.465C34.0283 529.753 23.0639 525.204 14.9769 517.117C6.88985 509.029 2.34051 498.065 2.32673 486.628V44.9663C2.34051 33.5292 6.88985 22.5645 14.9769 14.4773C23.0639 6.39003 34.0283 1.84057 45.465 1.82679H324.535C330.391 1.82416 336.186 3.01687 341.565 5.33188C346.944 7.64689 351.794 11.0355 355.818 15.2902C356.265 15.7652 356.704 16.2492 357.133 16.7425C363.932 24.5733 367.675 34.5957 367.673 44.9663V486.628Z" fill="white"/>
<path d="M45.0192 70.9792C44.9685 70.8601 44.9059 70.7519 44.8501 70.6373C46.9101 66.6063 47.9497 62.1314 47.8776 57.6051C47.8776 43.4461 39.0296 33.5571 26.3616 33.5571C13.6936 33.5571 4.84561 43.4461 4.84561 57.6051C4.84561 71.764 13.6936 81.653 26.3616 81.653C29.3518 81.7135 32.3184 81.1125 35.0493 79.893C37.7802 78.6735 40.2079 76.8656 42.1589 74.5986C46.2151 81.1624 54.0564 82.0284 54.4176 82.0646L54.8453 77.8671C54.5503 77.8354 47.5892 77.0208 45.0192 70.9792ZM26.3616 77.4341C16.1771 77.4341 9.06443 69.2801 9.06443 57.6051C9.06443 45.93 16.1771 37.776 26.3616 37.776C36.5461 37.776 43.6588 45.93 43.6588 57.6051C43.7 60.9336 43.0435 64.2338 41.7316 67.2931C35.4346 63.4672 23.7194 65.7533 22.1304 66.0882L22.9981 70.217C27.3014 69.3159 35.8624 68.5932 39.5889 70.9312C38.059 72.9877 36.0612 74.6502 33.761 75.781C31.4608 76.9119 28.9244 77.4785 26.3616 77.4341Z" fill="#EF2A4F"/>
<path d="M27.9013 91.688C26.5283 90.3169 24.667 89.5471 22.7266 89.5477C20.7863 89.5484 18.9255 90.3196 17.5534 91.6917C16.1814 93.0638 15.4103 94.9246 15.4096 96.865C15.4089 98.8054 16.1787 100.667 17.5498 102.04L27.9013 112.392L38.2528 102.04C39.6209 100.666 40.3882 98.8057 40.3863 96.8669C40.3843 94.9282 39.6133 93.0693 38.2424 91.6984C36.8715 90.3275 35.0127 89.5564 33.074 89.5545C31.1353 89.5525 29.275 90.3199 27.9013 91.688Z" fill="#EF2A4F"/>
<path d="M324.981 463.444C325.031 463.563 325.094 463.671 325.15 463.786C323.09 467.817 322.05 472.292 322.122 476.818C322.122 490.977 330.97 500.866 343.638 500.866C356.306 500.866 365.154 490.977 365.154 476.818C365.154 462.659 356.306 452.77 343.638 452.77C340.648 452.71 337.682 453.311 334.951 454.53C332.22 455.75 329.792 457.557 327.841 459.824C323.785 453.261 315.944 452.395 315.582 452.358L315.155 456.556C315.45 456.588 322.411 457.402 324.981 463.444ZM343.638 456.989C353.823 456.989 360.935 465.143 360.935 476.818C360.935 488.493 353.823 496.647 343.638 496.647C333.454 496.647 326.341 488.493 326.341 476.818C326.3 473.489 326.956 470.189 328.268 467.13C334.565 470.956 346.281 468.67 347.869 468.335L347.002 464.206C342.699 465.107 334.138 465.83 330.411 463.492C331.941 461.435 333.939 459.773 336.239 458.642C338.539 457.511 341.076 456.944 343.638 456.989Z" fill="#EF2A4F"/>
<path d="M342.099 442.735C343.472 444.104 345.333 444.872 347.272 444.871C349.212 444.869 351.071 444.098 352.442 442.727C353.814 441.356 354.585 439.496 354.586 437.557C354.588 435.617 353.82 433.757 352.45 432.383L342.099 422.031L331.747 432.383C330.378 433.757 329.61 435.617 329.612 437.557C329.613 439.496 330.384 441.356 331.755 442.727C333.127 444.098 334.986 444.869 336.926 444.871C338.865 444.872 340.725 444.104 342.099 442.735Z" fill="#EF2A4F"/>
<path d="M237.281 464.961C237.482 465.564 237.656 466.176 237.811 466.788H244.588C245.136 466.215 245.642 465.604 246.104 464.961H237.281ZM58.2705 63.9819V466.788H310.816V63.9819H58.2705ZM308.99 464.961H60.0973V65.8087H308.99V464.961ZM237.281 464.961C237.482 465.564 237.656 466.176 237.811 466.788H244.588C245.136 466.215 245.642 465.604 246.104 464.961H237.281Z" fill="white"/>
</svg>
