<svg width="574" height="403" viewBox="0 0 574 403" fill="none" xmlns="http://www.w3.org/2000/svg">
<path d="M453.301 402.249C450.452 402.248 447.617 401.856 444.874 401.085L331.006 370.606L331.34 369.407L445.21 399.887C447.843 400.627 450.566 401.003 453.301 401.005C466.702 401.005 478.587 393.24 482.204 380.34L563.437 90.6407C565.566 82.9812 564.573 74.7901 560.675 67.8616C556.776 60.9331 550.291 55.8322 542.639 53.6762L359.607 2.35015C351.945 0.21176 343.747 1.19965 336.812 5.09716C329.877 8.99467 324.771 15.4836 322.614 23.1408L316.254 45.825L315.056 45.489L321.416 22.8048C323.662 14.8299 328.98 8.07162 336.203 4.01242C343.426 -0.0467682 351.963 -1.07545 359.943 1.15202L542.975 52.4781C550.846 54.6955 557.536 59.9064 561.614 66.9952C565.691 74.0841 566.831 82.4874 564.789 90.4062L564.795 90.4078L483.402 380.676C479.635 394.111 467.257 402.249 453.301 402.249Z" fill="white"/>
<path d="M323.371 52.2845L325.455 52.8693L331.869 54.6674L332.541 52.2658L330.14 51.5939L332.249 44.0719L337.319 39.6669L338.67 53.9892L334.937 52.9377L334.265 55.3393L343.846 58.0271L344.518 55.6255L342.483 55.0593L340.53 36.8796L350.484 28.2253L353.278 29.0092L353.95 26.6076L344.362 23.9199L343.69 26.3214L346.851 27.2049L334.19 37.1534L337.699 24.6416L340.1 25.3135L340.772 22.912L331.185 20.2242L330.513 22.6258L334.109 23.6337L326.55 50.5859L322.954 49.578L322.861 49.9016L322.475 51.2952L323.371 52.2845Z" fill="#EF2A4F"/>
<path d="M338.794 74.9936C336.4 76.0305 334.063 77.1956 331.795 78.4839C331.378 78.7204 330.961 78.963 330.551 79.2056V71.5094C330.554 68.7408 330.162 65.9859 329.387 63.3279C329.748 63.104 330.115 62.8613 330.476 62.6187C330.806 62.4009 331.142 62.1769 331.471 61.9529C333.519 66.5093 335.969 70.8736 338.794 74.9936Z" fill="#EF2A4F"/>
<path d="M452.82 380.649L450.029 379.867L449.357 382.263L458.942 384.95L459.614 382.554L456.457 381.669L469.115 371.717L465.604 384.234L463.208 383.562L462.536 385.958L472.121 388.646L472.793 386.25L469.198 385.242L476.758 358.284L480.352 359.292L481.024 356.896L471.439 354.208L470.768 356.604L473.163 357.276L471.054 364.801L465.986 369.206L464.639 354.886L468.371 355.932L469.043 353.536L459.459 350.849L458.787 353.245L460.823 353.816L462.778 371.994L452.82 380.649Z" fill="#EF2A4F"/>
<path d="M464.509 333.88C468.995 331.956 473.262 329.558 477.238 326.726C479.368 331.241 481.817 335.599 484.566 339.766C480.109 341.749 475.848 344.144 471.837 346.92C469.786 342.364 467.334 338 464.509 333.88Z" fill="#EF2A4F"/>
<path d="M380.569 204.34C380.569 204.34 377.422 224.781 376.487 225.811C375.552 226.841 383.02 250.905 383.02 250.905L406.966 236.942C406.966 236.942 411.625 211.11 413.159 210.248C414.693 209.385 380.569 204.34 380.569 204.34Z" fill="#FFB8B8"/>
<path d="M380.569 204.34C380.569 204.34 377.422 224.781 376.487 225.811C375.552 226.841 383.02 250.905 383.02 250.905L406.966 236.942C406.966 236.942 411.625 211.11 413.159 210.248C414.693 209.385 380.569 204.34 380.569 204.34Z" fill="black"/>
<path d="M399.095 224.131C412.152 224.131 422.737 213.546 422.737 200.488C422.737 187.431 412.152 176.846 399.095 176.846C386.038 176.846 375.454 187.431 375.454 200.488C375.454 213.546 386.038 224.131 399.095 224.131Z" fill="#FFB8B8"/>
<path d="M388.849 237.031L386.788 235.161L377.528 221.981C377.528 221.981 376.465 221.281 375.457 224.876L374.449 228.47L365.749 231.846L346.498 314.326L398.016 328.772L419.232 246.197L409.267 235.649L408.163 230.56L392.779 236.841L388.849 237.031Z" fill="white"/>
<path d="M330.55 322.778L412.027 345.624L438.854 256.872C438.854 256.872 432.508 251.857 427.544 251.11C427.544 251.11 419.207 241.666 415.617 240.658C412.021 239.65 408.045 230.784 408.045 230.784C408.045 230.784 403.846 245.76 396.629 255.366C389.412 264.972 376.845 298.283 376.845 298.283L373.298 237.193L377.28 221.831C374.965 223.203 372.858 224.898 371.021 226.865C368.215 229.95 361.055 232.464 361.055 232.464C361.055 232.464 342.191 237.516 338.856 237.877C335.528 238.232 333.991 239.096 333.991 239.096L330.55 262.77V322.778Z" fill="#2F2E41"/>
<path d="M341.5 288.372C340.754 293.331 333.076 313.794 333.076 313.794L330.55 316.332V240.546C330.897 240.17 331.322 239.875 331.795 239.681C332.497 239.389 333.236 239.193 333.991 239.096L336.392 239.768C336.392 239.768 342.247 283.407 341.5 288.372Z" fill="#2F2E41"/>
<path d="M396.152 314.68C396.152 314.68 407.926 293.428 416.839 298.512C425.752 303.596 411.464 317.682 411.464 317.682L396.152 314.68Z" fill="#FFB8B8"/>
<path d="M359.705 306.398C359.705 306.398 337.11 299.416 336.606 301.213C336.102 303.01 329.915 313.552 331.712 314.056C333.509 314.56 347.455 317.825 347.287 318.424C347.119 319.023 353.972 322.237 353.972 322.237L359.705 306.398Z" fill="#FFB8B8"/>
<path d="M403.756 239.198L389.375 239.763L386.38 238.923L374.389 230.963L370.418 242.847L385.54 241.918L388.535 242.758L400.969 251.415L403.756 239.198Z" fill="#EF2A4F"/>
<path d="M365.111 328.595L362.902 333.299L331.173 324.588L330.55 322.778V312.804L331.795 313.29L333.076 313.794L365.111 328.595Z" fill="#2F2E41"/>
<path d="M366.295 308.246C366.295 308.246 358.843 304.864 358.675 305.463C358.507 306.062 348.507 323.289 350.904 323.961C353.3 324.633 361.781 328.95 361.781 328.95L366.295 308.246Z" fill="white"/>
<path d="M434.661 255.693L438.854 256.869C438.854 256.869 441.251 257.541 441.441 261.471C441.631 265.402 444.883 283.76 443.349 284.622C441.815 285.485 441.384 284.717 442.246 286.252C443.108 287.786 443.875 287.355 442.94 288.385C442.005 289.415 439.86 322.414 432.906 333.387C425.952 344.36 423.841 349.584 421.445 348.912L359.336 331.495C359.336 331.495 362.101 307.07 364.666 307.143C367.23 307.216 409.236 316.411 409.236 316.411C409.236 316.411 425.507 253.773 434.661 255.693Z" fill="#2F2E41"/>
<path d="M385.166 174.575L381.287 171.794C381.287 171.794 392.85 165.295 405.195 169.604L402.652 165.079C402.652 165.079 412.172 164.36 417.712 174.808C420.625 180.3 423.973 186.735 425.341 193.309L429.967 194.607L426.953 197.926L432.628 203.682L425.887 201.044C425.609 204.562 424.416 207.946 422.427 210.86L419.645 214.739C419.645 214.739 416.886 200.412 417.326 198.841L416.225 202.768C416.225 202.768 412.897 198.023 413.558 195.667L410.431 197.755L410.464 193.105L394.725 193.35L398.072 190.477L388.71 189.123L393.455 185.794C393.455 185.794 381.815 188.036 380.211 192.245C378.607 196.454 371.961 200.52 371.961 200.52L370.706 195.933C370.706 195.933 372.127 177.272 385.166 174.575Z" fill="#2F2E41"/>
<path d="M377.038 183.081L377.223 182.275C379.021 174.448 365.192 159.892 365.052 159.746L364.806 159.49L364.902 159.148C365.176 158.172 366.273 157.306 375.889 159.39C379.633 160.202 383.366 161.191 384.929 161.615C384.755 157.146 379.215 151.225 379.156 151.162L378.459 150.424L379.434 150.138C385.82 148.266 393.295 154.475 395.684 156.674L399.677 142.433L407.58 154.105C412.431 146.842 419.447 147.137 419.754 147.154L420.739 147.207L420.266 148.073C416.942 154.155 416.343 158.15 416.308 160.12C425.153 149.612 433.123 150.527 433.47 150.573L434.678 150.732L433.84 151.617C422.262 163.852 420.898 179.992 420.886 180.153L420.844 180.697L377.038 183.081ZM366.43 159.398C368.875 162.048 379.448 174.007 378.572 181.751L419.702 179.514C420.041 176.634 422.127 162.934 431.962 151.827C429.282 152.066 422.959 153.594 416.299 162.106L415.536 163.081L415.209 161.887C415.158 161.699 414.044 157.323 418.663 148.434C416.546 148.634 411.615 149.743 408.131 155.56L407.629 156.398L400.151 145.352L396.313 159.04L395.56 158.277C395.476 158.192 387.453 150.158 380.782 151.116C382.494 153.11 386.592 158.362 386.143 162.491L386.064 163.221L385.356 163.023C377.5 160.82 368.526 158.94 366.43 159.398Z" fill="#EF2A4F"/>
<path d="M436.57 147.295C436.145 147.176 435.765 146.934 435.478 146.598C435.191 146.263 435.009 145.85 434.957 145.412C434.904 144.974 434.983 144.53 435.183 144.136C435.383 143.743 435.695 143.417 436.079 143.201C436.464 142.985 436.904 142.887 437.344 142.921C437.784 142.955 438.205 143.119 438.552 143.392C438.899 143.665 439.157 144.034 439.294 144.454C439.431 144.873 439.441 145.324 439.321 145.749C439.161 146.318 438.781 146.801 438.266 147.091C437.75 147.381 437.14 147.454 436.57 147.295ZM437.439 144.196C437.251 144.143 437.052 144.147 436.866 144.208C436.681 144.269 436.517 144.383 436.396 144.536C436.276 144.69 436.203 144.876 436.188 145.07C436.173 145.265 436.216 145.46 436.312 145.63C436.408 145.8 436.552 145.938 436.726 146.027C436.9 146.115 437.096 146.15 437.29 146.127C437.484 146.103 437.667 146.023 437.815 145.896C437.963 145.769 438.071 145.601 438.123 145.413C438.194 145.161 438.161 144.891 438.033 144.663C437.905 144.435 437.691 144.267 437.439 144.196Z" fill="#EF2A4F"/>
<path d="M421.073 142.949C420.648 142.83 420.268 142.588 419.981 142.253C419.694 141.917 419.512 141.505 419.46 141.066C419.407 140.628 419.486 140.184 419.686 139.791C419.885 139.397 420.198 139.071 420.582 138.855C420.967 138.639 421.407 138.542 421.847 138.576C422.287 138.61 422.708 138.773 423.055 139.046C423.402 139.319 423.66 139.688 423.797 140.108C423.934 140.527 423.944 140.978 423.824 141.403C423.664 141.973 423.284 142.455 422.768 142.745C422.253 143.035 421.643 143.109 421.073 142.949ZM421.942 139.85C421.754 139.797 421.555 139.802 421.369 139.862C421.183 139.923 421.02 140.037 420.899 140.191C420.779 140.344 420.706 140.53 420.691 140.725C420.676 140.919 420.719 141.114 420.815 141.284C420.911 141.455 421.055 141.593 421.229 141.681C421.403 141.769 421.599 141.804 421.793 141.781C421.987 141.758 422.17 141.678 422.318 141.551C422.466 141.423 422.574 141.255 422.626 141.067C422.697 140.815 422.664 140.545 422.536 140.317C422.408 140.089 422.194 139.921 421.942 139.85Z" fill="#EF2A4F"/>
<path d="M397.516 140.523C397.091 140.404 396.711 140.161 396.424 139.826C396.137 139.491 395.955 139.078 395.903 138.64C395.85 138.201 395.929 137.757 396.129 137.364C396.329 136.97 396.641 136.645 397.025 136.429C397.41 136.212 397.85 136.115 398.29 136.149C398.73 136.183 399.151 136.347 399.498 136.619C399.845 136.892 400.103 137.262 400.24 137.681C400.377 138.101 400.386 138.552 400.267 138.977C400.107 139.546 399.727 140.029 399.211 140.319C398.696 140.609 398.086 140.682 397.516 140.523ZM398.385 137.423C398.197 137.371 397.998 137.375 397.812 137.436C397.626 137.496 397.463 137.61 397.342 137.764C397.222 137.918 397.149 138.103 397.134 138.298C397.119 138.493 397.162 138.688 397.258 138.858C397.354 139.028 397.498 139.166 397.672 139.254C397.846 139.343 398.042 139.378 398.236 139.354C398.43 139.331 398.613 139.251 398.761 139.124C398.909 138.997 399.016 138.829 399.069 138.641C399.14 138.389 399.107 138.119 398.979 137.891C398.851 137.662 398.637 137.494 398.385 137.423Z" fill="#EF2A4F"/>
<path d="M359.909 158.394C359.484 158.275 359.104 158.032 358.817 157.697C358.53 157.362 358.349 156.949 358.296 156.511C358.244 156.073 358.322 155.629 358.522 155.235C358.722 154.842 359.034 154.516 359.419 154.3C359.803 154.084 360.244 153.986 360.684 154.02C361.124 154.054 361.544 154.218 361.891 154.491C362.238 154.764 362.496 155.133 362.633 155.553C362.77 155.972 362.78 156.423 362.661 156.848C362.5 157.417 362.121 157.9 361.605 158.19C361.089 158.48 360.479 158.553 359.909 158.394ZM360.778 155.295C360.59 155.242 360.391 155.246 360.205 155.307C360.02 155.367 359.856 155.482 359.736 155.635C359.615 155.789 359.543 155.975 359.528 156.169C359.512 156.364 359.556 156.559 359.651 156.729C359.747 156.899 359.891 157.037 360.065 157.126C360.239 157.214 360.436 157.249 360.629 157.226C360.823 157.202 361.006 157.122 361.154 156.995C361.302 156.868 361.41 156.7 361.463 156.512C361.533 156.26 361.5 155.99 361.372 155.762C361.244 155.534 361.03 155.366 360.778 155.295Z" fill="#EF2A4F"/>
<path d="M374.451 148.263C374.026 148.144 373.646 147.902 373.359 147.566C373.072 147.231 372.89 146.818 372.838 146.38C372.785 145.942 372.864 145.498 373.064 145.104C373.264 144.711 373.576 144.385 373.96 144.169C374.345 143.953 374.785 143.856 375.225 143.89C375.665 143.923 376.086 144.087 376.433 144.36C376.78 144.633 377.038 145.002 377.175 145.422C377.312 145.841 377.322 146.292 377.202 146.717C377.042 147.287 376.662 147.769 376.146 148.059C375.631 148.349 375.021 148.422 374.451 148.263ZM375.32 145.164C375.132 145.111 374.933 145.115 374.747 145.176C374.562 145.237 374.398 145.351 374.277 145.504C374.157 145.658 374.084 145.844 374.069 146.039C374.054 146.233 374.097 146.428 374.193 146.598C374.289 146.768 374.433 146.907 374.607 146.995C374.781 147.083 374.977 147.118 375.171 147.095C375.365 147.072 375.548 146.991 375.696 146.864C375.844 146.737 375.952 146.569 376.004 146.381C376.075 146.129 376.042 145.859 375.914 145.631C375.786 145.403 375.572 145.235 375.32 145.164Z" fill="#EF2A4F"/>
<path d="M448.617 357.824L330.743 324.769L331.078 323.571L447.755 356.29L521.5 93.3027L357.062 47.1914L331.981 136.637L330.783 136.301L356.201 45.6571L523.033 92.441L448.617 357.824Z" fill="white"/>
<path d="M26.4026 381.9C34.1349 396.241 50.5457 402.397 50.5457 402.397C50.5457 402.397 54.4199 385.302 46.6876 370.962C38.9553 356.622 22.5444 350.466 22.5444 350.466C22.5444 350.466 18.6703 367.56 26.4026 381.9Z" fill="#2F2E41"/>
<path d="M31.7173 377.182C45.6774 385.581 51.0538 402.264 51.0538 402.264C51.0538 402.264 33.7966 405.33 19.8365 396.931C5.87646 388.532 0.5 371.849 0.5 371.849C0.5 371.849 17.7573 368.783 31.7173 377.182Z" fill="#EF2A4F"/>
<path d="M330.476 62.6187C329.405 59.0921 327.704 55.7889 325.455 52.8693C324.654 51.826 323.788 50.8347 322.861 49.9016C320.019 47.0405 316.639 44.7703 312.915 43.222C309.192 41.6736 305.199 40.8777 301.166 40.8801H111.075C102.954 40.8884 95.1684 44.118 89.4262 49.8603C83.684 55.6027 80.4545 63.3886 80.4463 71.5094V372.352C80.4545 380.473 83.684 388.259 89.4262 394.001C95.1684 399.743 102.954 402.973 111.075 402.981H301.166C309.287 402.973 317.073 399.743 322.815 394.001C328.557 388.259 331.787 380.473 331.795 372.352V71.5094C331.798 68.4969 331.354 65.5006 330.476 62.6187ZM330.55 372.352C330.541 380.143 327.442 387.611 321.934 393.12C316.425 398.629 308.957 401.728 301.166 401.737H111.075C103.284 401.728 95.8159 398.629 90.3073 393.12C84.7988 387.611 81.6999 380.143 81.6906 372.352V71.5094C81.6999 63.7189 84.7988 56.2502 90.3073 50.7415C95.8159 45.2328 103.284 42.1339 111.075 42.1245H301.166C305.155 42.1227 309.103 42.9351 312.767 44.512C316.43 46.0889 319.734 48.3971 322.475 51.2952C322.78 51.6187 323.078 51.9485 323.371 52.2845C328.002 57.6185 330.552 64.4454 330.551 71.5094L330.55 372.352Z" fill="white"/>
<path d="M110.771 89.2284C110.737 89.1473 110.694 89.0736 110.656 88.9956C112.059 86.2498 112.767 83.2017 112.718 80.1185C112.718 70.4739 106.691 63.7379 98.0622 63.7379C89.4332 63.7379 83.4063 70.4739 83.4063 80.1185C83.4063 89.7631 89.4332 96.499 98.0622 96.499C100.099 96.5402 102.12 96.1308 103.98 95.3001C105.84 94.4695 107.494 93.238 108.823 91.6939C111.586 96.1648 116.927 96.7547 117.173 96.7794L117.464 93.9202C117.263 93.8986 112.522 93.3438 110.771 89.2284ZM98.0622 93.6253C91.1249 93.6253 86.28 88.0711 86.28 80.1185C86.28 72.1659 91.1249 66.6117 98.0622 66.6117C104.999 66.6117 109.844 72.1659 109.844 80.1185C109.872 82.3857 109.425 84.6337 108.532 86.7176C104.242 84.1116 96.2624 85.6688 95.1801 85.8969L95.7711 88.7092C98.7023 88.0955 104.534 87.6032 107.072 89.1957C106.03 90.5966 104.669 91.729 103.102 92.4993C101.536 93.2695 99.8078 93.6555 98.0622 93.6253Z" fill="#EF2A4F"/>
<path d="M99.1108 103.335C98.1755 102.401 96.9077 101.876 95.586 101.877C94.2642 101.877 92.9968 102.402 92.0622 103.337C91.1276 104.272 90.6023 105.539 90.6019 106.861C90.6014 108.183 91.1258 109.45 92.0597 110.386L99.1108 117.437L106.162 110.386C107.094 109.45 107.616 108.183 107.615 106.862C107.614 105.542 107.089 104.275 106.155 103.342C105.221 102.408 103.955 101.883 102.634 101.881C101.314 101.88 100.046 102.403 99.1108 103.335Z" fill="#EF2A4F"/>
<path d="M301.47 356.56C301.504 356.641 301.547 356.715 301.585 356.793C300.182 359.539 299.474 362.587 299.523 365.67C299.523 375.315 305.55 382.051 314.179 382.051C322.808 382.051 328.835 375.315 328.835 365.67C328.835 356.025 322.808 349.289 314.179 349.289C312.142 349.248 310.121 349.658 308.261 350.488C306.401 351.319 304.747 352.551 303.418 354.095C300.655 349.624 295.314 349.034 295.068 349.009L294.777 351.868C294.978 351.89 299.719 352.445 301.47 356.56ZM314.179 352.163C321.116 352.163 325.961 357.717 325.961 365.67C325.961 373.623 321.116 379.177 314.179 379.177C307.242 379.177 302.397 373.623 302.397 365.67C302.369 363.403 302.816 361.155 303.709 359.071C307.999 361.677 315.979 360.12 317.061 359.892L316.47 357.079C313.539 357.693 307.707 358.185 305.169 356.593C306.211 355.192 307.572 354.06 309.139 353.289C310.705 352.519 312.433 352.133 314.179 352.163Z" fill="#EF2A4F"/>
<path d="M313.13 342.454C314.066 343.387 315.333 343.91 316.654 343.909C317.975 343.908 319.242 343.383 320.176 342.449C321.11 341.515 321.635 340.248 321.636 338.927C321.637 337.606 321.114 336.338 320.181 335.403L313.13 328.352L306.079 335.403C305.147 336.338 304.623 337.606 304.624 338.927C304.625 340.248 305.151 341.515 306.085 342.449C307.019 343.383 308.285 343.908 309.606 343.909C310.927 343.91 312.195 343.387 313.13 342.454Z" fill="#EF2A4F"/>
<path d="M221.454 211.796C212.984 197.484 196.227 196.817 196.227 196.817C196.227 196.817 179.898 194.729 169.423 216.527C159.659 236.844 146.184 256.46 167.253 261.216L171.059 249.371L173.416 262.098C176.416 262.314 179.425 262.365 182.43 262.252C204.994 261.524 226.482 262.465 225.79 254.369C224.87 243.605 229.604 225.568 221.454 211.796Z" fill="#2F2E41"/>
<path d="M190.207 260.559C190.248 262.17 190.236 263.869 189.435 265.268C187.849 268.04 183.975 268.455 181.644 270.641C179.194 272.939 178.916 276.668 178.8 280.026C178.678 283.536 178.574 287.161 179.855 290.432C180.64 292.233 181.631 293.937 182.81 295.509C184.233 297.56 185.669 299.602 187.118 301.634C187.892 302.779 188.754 303.861 189.697 304.871C192.292 307.515 195.852 308.978 199.406 310.022C201.702 310.697 204.182 311.222 206.46 310.489C207.967 309.901 209.357 309.046 210.562 307.967C212.257 306.621 213.977 305.248 215.205 303.466C217.119 300.691 217.648 297.216 218.045 293.869C219.217 283.97 219.673 274 219.41 264.035C219.458 262.949 219.263 261.866 218.84 260.865C217.66 258.561 214.5 258.069 212.835 256.087C211.411 254.393 211.353 251.975 211.365 249.761V245.746C211.415 245.272 210 246.5 210 246.5L208.5 247.658L203.329 249.937L198.998 250.78C196.121 250.868 192.705 250.515 192.705 250.515C192.705 250.515 188.816 249.053 189.115 250.467C189.818 253.786 190.184 257.167 190.207 260.559Z" fill="#A0616A"/>
<path d="M196.81 250.884C209.387 250.884 219.582 240.688 219.582 228.11C219.582 215.533 209.387 205.337 196.81 205.337C184.232 205.337 174.037 215.533 174.037 228.11C174.037 240.688 184.232 250.884 196.81 250.884Z" fill="#A0616A"/>
<path d="M187.432 284.519C185.984 282.366 184.792 280.051 183.881 277.621C183.066 275.159 182.853 272.409 183.819 270.003C181.358 268.575 178.017 269.732 176.225 271.941C174.433 274.151 173.884 277.113 173.726 279.954C173.568 282.795 173.736 285.678 173.118 288.455C171.75 294.599 166.675 299.651 166.297 305.934C165.926 312.116 170.165 317.501 172.25 323.332C173.514 326.966 174.042 330.815 173.804 334.656C173.737 335.896 173.659 337.309 174.533 338.19C174.989 338.588 175.527 338.878 176.11 339.039C186.172 342.579 197.041 342.886 207.705 343.156L225.318 343.602C226.383 343.729 227.462 343.548 228.428 343.081C230.008 342.112 230.219 339.94 230.246 338.087C230.478 322.125 229.799 306.164 229.12 290.215C228.874 284.433 228.624 278.619 227.398 272.964C227.086 271.524 226.574 269.923 225.245 269.287C224.119 268.749 222.784 269.097 221.615 269.529C216.155 271.56 211.437 275.192 208.078 279.95C204.464 285.094 202.686 291.264 199.149 296.447C196.583 300.208 195.098 296.93 193.388 294.16C191.404 290.946 189.418 287.732 187.432 284.519Z" fill="white"/>
<path d="M184.706 270.397C184.258 270.714 183.816 271.05 183.393 271.405C181.808 272.713 180.388 274.209 179.163 275.859C177.135 278.624 175.521 281.669 174.372 284.899C172.307 290.561 171.411 296.571 170.552 302.532C170.177 304.727 169.976 306.949 169.949 309.176C170.079 317.364 174.92 324.948 174.926 333.142C174.926 333.453 174.92 333.758 174.901 334.069C174.843 335.411 174.685 336.746 174.428 338.064C174.074 339.986 173.563 341.884 173.059 343.775C171.79 348.516 170.422 353.431 167.945 357.593C167.697 358.016 167.429 358.433 167.155 358.838H149.735C149.872 358.421 150.015 358.01 150.152 357.593C153.12 348.802 156.085 340.013 159.049 331.226C159.957 328.538 160.865 325.838 161.506 323.076C162.239 319.665 162.74 316.208 163.006 312.729C163.69 305.518 164.14 298.293 164.356 291.053C164.437 288.452 164.493 285.795 165.332 283.332C166.12 281.324 167.161 279.425 168.431 277.682C170.229 274.976 172.027 272.269 173.825 269.563C174.826 268.057 175.878 266.508 177.421 265.569C178.709 264.779 180.239 264.492 181.595 263.827C182.449 263.342 183.268 262.8 184.047 262.203C186.075 260.766 188.458 259.254 190.206 260.722C190.489 260.957 190.733 261.237 190.928 261.549C191.027 261.703 191.117 261.863 191.195 262.029C192.875 265.662 186.965 268.798 184.706 270.397Z" fill="#2F2E41"/>
<path d="M242.093 358.838H161.413C161.848 358.44 162.278 358.023 162.694 357.593C162.757 357.531 162.813 357.469 162.875 357.407C165.961 354.203 166.664 350.264 168.213 346.096C169.376 342.954 170.54 339.814 171.703 336.676C171.887 336.065 172.19 335.497 172.593 335.003C172.93 334.654 173.353 334.401 173.818 334.268C174.17 334.16 174.534 334.094 174.901 334.069C175.425 334.035 175.951 334.035 176.475 334.069C190.953 334.816 205.42 335.726 219.876 336.801C221.743 336.944 223.609 337.087 225.476 337.23C227 338.362 228.505 339.563 229.943 340.832C234.615 344.939 238.665 349.773 240.986 355.484C241.266 356.175 241.521 356.878 241.732 357.593C241.869 358.004 241.987 358.421 242.093 358.838Z" fill="#2F2E41"/>
<path d="M217.709 210.417L201.154 201.745L178.292 205.292L173.562 226.184L185.336 225.732L188.626 218.056V225.605L194.059 225.396L197.212 213.176L199.183 226.184L218.498 225.79L217.709 210.417Z" fill="#2F2E41"/>
<path d="M242.093 358.838H223.877C223.746 358.427 223.622 358.01 223.503 357.593C222.217 352.966 221.273 348.249 220.679 343.483C220.486 342.12 220.318 340.751 220.162 339.389C220.063 338.524 219.97 337.665 219.876 336.801C218.831 327.194 218.028 317.495 215.092 308.299C214.737 307.185 214.352 306.078 213.978 304.971C213.289 303.064 212.748 301.106 212.361 299.116C211.564 294.562 212.162 289.846 211.34 285.298C210.88 282.759 209.965 280.526 209.412 278.199C209.059 276.794 208.921 275.345 209.001 273.9C210.342 272.634 212.029 271.798 213.848 271.498C214.476 271.392 215.185 271.311 215.565 270.807C215.789 270.424 215.889 269.981 215.851 269.538C215.895 266.604 215.726 263.67 215.347 260.759C215.223 259.739 215.067 258.719 214.88 257.705C214.874 257.655 214.862 257.611 214.855 257.561C216.374 256.902 218.084 256.896 219.733 256.902C221.531 256.908 223.323 256.908 225.115 256.914C228.431 256.927 231.747 256.937 235.063 256.945C238.149 256.952 241.34 256.983 244.146 258.258C247.046 259.583 249.248 262.141 250.704 264.978C252.16 267.815 252.95 270.938 253.665 274.043C253.864 274.902 253.968 275.78 253.976 276.662C254.113 283.668 248.887 290.723 248.365 297.884C248.197 300.205 248.389 302.544 248.178 304.865C247.966 307.192 247.344 309.469 247.232 311.796C247.226 311.914 247.22 312.038 247.22 312.157C247.151 315.187 248.035 318.154 249.055 321.01C250.635 325.446 252.558 329.745 254.542 334.02C256.459 338.157 258.425 342.276 260.192 346.469C261.11 348.416 261.729 350.49 262.027 352.622C262.223 354.336 261.896 356.069 261.087 357.593C260.88 357.97 260.632 358.323 260.347 358.645L260.335 358.657C260.279 358.72 260.223 358.782 260.167 358.838H242.093Z" fill="#2F2E41"/>
<path d="M259.445 352.454C259.369 353.282 259.143 354.09 258.779 354.837C258.748 354.912 258.717 354.98 258.686 355.055C258.325 355.907 257.958 356.747 257.579 357.593C257.392 358.004 257.205 358.421 257.012 358.838H246.71C247.083 358.448 247.428 358.032 247.742 357.593C249.323 355.397 250.237 352.728 251.849 350.358C252.067 350.033 252.32 349.733 252.601 349.462C255.183 346.961 259.607 347.471 259.445 352.454Z" fill="#FFB8B8"/>
<path d="M266.152 358.838C266.283 358.429 266.394 358.014 266.482 357.593C266.556 357.264 266.618 356.94 266.668 356.61C266.998 354.439 266.992 352.218 267.508 350.084C268.236 347.029 270.42 343.414 268.622 340.845C270.021 340.558 271.339 339.967 272.485 339.115C273.555 338.182 274.177 336.564 273.53 335.295C272.89 334.044 271.154 333.217 271.39 331.829C271.508 331.389 271.716 330.978 272 330.622C272.943 329.134 273.431 327.403 273.404 325.641C273.376 323.879 272.834 322.163 271.844 320.705C271.278 319.896 270.581 319.187 270.065 318.341C269.5 317.306 269.068 316.205 268.777 315.062C266.981 309.273 264.333 303.783 260.919 298.774C260.163 297.81 259.576 296.724 259.184 295.563C258.954 294.305 258.908 293.021 259.047 291.749C259.171 286.722 257.292 281.813 254.586 277.583C254.387 277.272 254.182 276.967 253.976 276.662C251.363 272.811 248.122 269.432 244.893 266.079C243.561 266.701 242.386 267.105 241.695 268.4C241.356 269.129 241.148 269.913 241.079 270.714C240.196 276.873 239.43 283.07 238.833 289.261C238.535 292.39 238.23 295.545 238.584 298.668C238.939 301.791 240.003 304.921 242.118 307.241C243.443 308.697 245.123 309.78 246.56 311.124C246.79 311.342 247.014 311.566 247.232 311.796C248.268 312.899 249.187 314.106 249.976 315.398C253.424 320.968 255.022 327.486 254.542 334.02C254.455 335.197 254.3 336.369 254.076 337.529C253.802 339.189 253.242 340.789 252.421 342.257C251.768 343.333 250.909 344.273 250.318 345.387C249.727 346.5 249.447 347.888 250.032 349.001C250.909 349 251.779 349.156 252.601 349.462C254.538 350.209 256.222 351.493 257.454 353.164C257.908 353.765 258.32 354.397 258.686 355.055C259.147 355.875 259.559 356.723 259.918 357.593C260.067 357.936 260.21 358.29 260.347 358.645C260.378 358.707 260.403 358.771 260.422 358.838H266.152Z" fill="#2F2E41"/>
<path d="M215.285 250.593L202.093 256.347L198.998 256.653L184.934 253.596L185.554 266.111L199.304 259.749L202.399 259.443L217.129 262.987L215.285 250.593Z" fill="#EF2A4F"/>
<path d="M241.732 357.593C241.869 358.004 241.987 358.421 242.093 358.838L246.71 358.838C247.083 358.448 247.428 358.032 247.742 357.593H241.732ZM119.797 84.4621V358.838H291.822V84.4621H119.797ZM290.577 357.593H121.042V85.7064H290.577V357.593ZM241.732 357.593C241.869 358.004 241.987 358.421 242.093 358.838L246.71 358.838C247.083 358.448 247.428 358.032 247.742 357.593H241.732Z" fill="white"/>
<path d="M176.32 204.499L176.427 203.964C176.458 203.805 179.503 187.896 171.658 172.99L171.091 171.911L172.297 172.084C172.643 172.134 180.564 173.404 186.243 185.91C186.742 184.004 187.244 179.996 185.685 173.242L185.463 172.281L186.426 172.495C186.726 172.562 193.562 174.173 196.272 182.475L207.032 173.37V188.161C209.926 186.689 218.8 182.729 224.444 186.256L225.305 186.794L224.434 187.317C224.36 187.361 217.428 191.567 216.053 195.822C217.673 195.836 221.535 195.892 225.359 196.121C235.18 196.71 236.003 197.841 236.003 198.855V199.21L235.697 199.39C235.523 199.493 218.277 209.774 217.895 217.796L217.856 218.622L176.32 204.499ZM215.262 197.062H214.527L214.648 196.338C215.331 192.241 220.694 188.291 222.881 186.833C216.717 184.11 206.822 189.679 206.718 189.738L205.788 190.269V176.053L195.605 184.67L195.348 183.728C193.564 177.186 189.116 174.787 187.131 174.022C189.178 183.828 186.925 187.741 186.825 187.908L186.188 188.97L185.716 187.825C181.601 177.831 175.926 174.653 173.41 173.699C179.881 187.049 178.19 200.803 177.739 203.667L216.738 216.927C217.985 209.234 231.394 200.574 234.464 198.682C232.569 197.675 223.422 197.062 215.262 197.062Z" fill="#EF2A4F"/>
<path d="M167.965 165.859C167.965 165.418 168.096 164.987 168.341 164.62C168.586 164.253 168.935 163.966 169.343 163.798C169.75 163.629 170.199 163.584 170.632 163.671C171.065 163.757 171.462 163.969 171.775 164.281C172.087 164.593 172.299 164.991 172.385 165.424C172.471 165.857 172.427 166.306 172.258 166.713C172.089 167.121 171.803 167.47 171.436 167.715C171.069 167.96 170.638 168.091 170.197 168.091C169.605 168.09 169.038 167.855 168.619 167.437C168.201 167.018 167.966 166.451 167.965 165.859ZM169.209 165.859C169.209 166.055 169.267 166.246 169.376 166.408C169.484 166.57 169.638 166.697 169.819 166.772C169.999 166.846 170.198 166.866 170.389 166.828C170.581 166.79 170.757 166.696 170.895 166.557C171.033 166.419 171.127 166.243 171.165 166.052C171.203 165.86 171.183 165.662 171.109 165.482C171.034 165.301 170.907 165.147 170.745 165.038C170.583 164.93 170.392 164.872 170.197 164.872C169.935 164.872 169.684 164.976 169.499 165.162C169.314 165.347 169.21 165.598 169.209 165.859Z" fill="#EF2A4F"/>
<path d="M184.06 165.859C184.06 165.418 184.191 164.987 184.436 164.62C184.681 164.253 185.03 163.966 185.437 163.798C185.845 163.629 186.294 163.584 186.727 163.671C187.16 163.757 187.557 163.969 187.869 164.281C188.181 164.593 188.394 164.991 188.48 165.424C188.566 165.857 188.522 166.306 188.353 166.713C188.184 167.121 187.898 167.47 187.531 167.715C187.164 167.96 186.733 168.091 186.291 168.091C185.7 168.09 185.132 167.855 184.714 167.437C184.296 167.018 184.06 166.451 184.06 165.859ZM185.304 165.859C185.304 166.055 185.362 166.246 185.47 166.408C185.579 166.57 185.733 166.697 185.913 166.772C186.094 166.846 186.292 166.866 186.484 166.828C186.675 166.79 186.851 166.696 186.989 166.557C187.128 166.419 187.222 166.243 187.26 166.052C187.298 165.86 187.278 165.662 187.203 165.482C187.129 165.301 187.002 165.147 186.84 165.038C186.677 164.93 186.487 164.872 186.291 164.872C186.03 164.872 185.779 164.976 185.594 165.162C185.408 165.347 185.304 165.598 185.304 165.859Z" fill="#EF2A4F"/>
<path d="M207.397 169.883C207.397 169.442 207.528 169.011 207.773 168.644C208.018 168.277 208.367 167.99 208.775 167.822C209.182 167.653 209.631 167.608 210.064 167.695C210.497 167.781 210.895 167.993 211.207 168.305C211.519 168.617 211.731 169.015 211.817 169.448C211.903 169.881 211.859 170.33 211.69 170.737C211.521 171.145 211.235 171.494 210.868 171.739C210.501 171.984 210.07 172.115 209.629 172.115C209.037 172.114 208.47 171.879 208.051 171.461C207.633 171.042 207.398 170.475 207.397 169.883ZM208.641 169.883C208.641 170.079 208.699 170.27 208.808 170.432C208.916 170.594 209.07 170.721 209.251 170.796C209.431 170.87 209.63 170.89 209.821 170.852C210.013 170.814 210.189 170.72 210.327 170.582C210.465 170.443 210.559 170.267 210.597 170.076C210.635 169.884 210.615 169.686 210.541 169.506C210.466 169.325 210.34 169.171 210.177 169.062C210.015 168.954 209.824 168.896 209.629 168.896C209.367 168.896 209.116 169 208.931 169.186C208.746 169.371 208.642 169.622 208.641 169.883Z" fill="#EF2A4F"/>
<path d="M238.782 197.245C238.782 196.804 238.913 196.372 239.158 196.005C239.403 195.638 239.752 195.352 240.159 195.183C240.567 195.014 241.016 194.97 241.449 195.056C241.882 195.142 242.279 195.355 242.591 195.667C242.904 195.979 243.116 196.377 243.202 196.81C243.288 197.243 243.244 197.691 243.075 198.099C242.906 198.507 242.62 198.855 242.253 199.101C241.886 199.346 241.455 199.477 241.013 199.477C240.422 199.476 239.855 199.241 239.436 198.822C239.018 198.404 238.782 197.837 238.782 197.245ZM240.026 197.245C240.026 197.44 240.084 197.631 240.193 197.794C240.301 197.956 240.455 198.082 240.636 198.157C240.816 198.232 241.015 198.252 241.206 198.213C241.398 198.175 241.574 198.081 241.712 197.943C241.85 197.805 241.944 197.629 241.982 197.438C242.02 197.246 242 197.048 241.926 196.867C241.851 196.687 241.724 196.533 241.562 196.424C241.4 196.316 241.209 196.258 241.013 196.258C240.752 196.258 240.501 196.362 240.316 196.547C240.131 196.732 240.026 196.983 240.026 197.245Z" fill="#EF2A4F"/>
<path d="M227.515 183.564C227.515 183.123 227.646 182.691 227.891 182.324C228.137 181.957 228.485 181.671 228.893 181.502C229.301 181.333 229.75 181.289 230.183 181.375C230.615 181.461 231.013 181.674 231.325 181.986C231.637 182.298 231.85 182.696 231.936 183.129C232.022 183.562 231.978 184.01 231.809 184.418C231.64 184.826 231.354 185.174 230.987 185.42C230.62 185.665 230.188 185.796 229.747 185.796C229.155 185.795 228.588 185.56 228.17 185.141C227.751 184.723 227.516 184.156 227.515 183.564ZM228.76 183.564C228.76 183.759 228.818 183.95 228.926 184.113C229.035 184.275 229.189 184.402 229.369 184.477C229.55 184.551 229.748 184.571 229.94 184.533C230.131 184.495 230.307 184.401 230.445 184.262C230.584 184.124 230.678 183.948 230.716 183.757C230.754 183.565 230.734 183.367 230.659 183.186C230.585 183.006 230.458 182.852 230.296 182.743C230.133 182.635 229.942 182.577 229.747 182.577C229.485 182.577 229.234 182.681 229.049 182.866C228.864 183.051 228.76 183.302 228.76 183.564Z" fill="#EF2A4F"/>
<path d="M573.5 401.456H7.9658V402.701H573.5V401.456Z" fill="white"/>
</svg>
